<svg xmlns="http://www.w3.org/2000/svg" width="70.933" height="76" viewBox="0 0 70.933 76">
  <g id="assets" transform="translate(-32 -16)">
    <path id="Path_961" data-name="Path 961" d="M100.4,17.267A1.267,1.267,0,0,0,99.133,16H89a1.267,1.267,0,0,0-1.267,1.267v8.867H78.867A1.267,1.267,0,0,0,77.6,27.4V37.533H68.733A1.267,1.267,0,0,0,67.467,38.8V48.933H58.6A1.267,1.267,0,0,0,57.333,50.2v8.867H43.4a1.267,1.267,0,0,0-1.267,1.267v6.333H35.8a1.267,1.267,0,0,0-1.267,1.267V84.4H32v2.533h70.933V84.4H100.4ZM90.267,18.533h7.6V84.4h-7.6ZM80.133,28.667h7.6V84.4h-7.6ZM70,40.067h7.6V84.4H67.467V79.333H73.8a1.267,1.267,0,0,0,1.267-1.267V60.333A1.267,1.267,0,0,0,73.8,59.067H70ZM49.733,61.6H67.467a5.072,5.072,0,0,0,5.067,5.067v5.067A5.072,5.072,0,0,0,67.467,76.8V67.933A1.267,1.267,0,0,0,66.2,66.667H44.667A5.072,5.072,0,0,0,49.733,61.6Zm22.8,0v2.533A2.536,2.536,0,0,1,70,61.6Zm0,12.667V76.8H70a2.536,2.536,0,0,1,2.533-2.533Zm-7.6-5.067v2.533A2.536,2.536,0,0,1,62.4,69.2ZM59.867,51.467h7.6v7.6h-7.6ZM44.667,61.6H47.2a2.536,2.536,0,0,1-2.533,2.533Zm-7.6,7.6H39.6a2.536,2.536,0,0,1-2.533,2.533Zm0,12.667A2.536,2.536,0,0,1,39.6,84.4H37.067Zm0-2.533V74.267A5.072,5.072,0,0,0,42.133,69.2H59.867a5.072,5.072,0,0,0,5.067,5.067v5.067A5.072,5.072,0,0,0,59.867,84.4H42.133A5.072,5.072,0,0,0,37.067,79.333ZM62.4,84.4a2.536,2.536,0,0,1,2.533-2.533V84.4Z" fill="#6dbbd4"/>
    <path id="Path_962" data-name="Path 962" d="M344,480h5.067v2.533H344Z" transform="translate(-262.6 -390.533)" fill="#6dbbd4"/>
    <path id="Path_963" data-name="Path 963" d="M280,480h5.067v2.533H280Z" transform="translate(-208.733 -390.533)" fill="#6dbbd4"/>
    <path id="Path_964" data-name="Path 964" d="M216,480h5.067v2.533H216Z" transform="translate(-154.867 -390.533)" fill="#6dbbd4"/>
    <path id="Path_965" data-name="Path 965" d="M152,480h5.067v2.533H152Z" transform="translate(-101 -390.533)" fill="#6dbbd4"/>
    <path id="Path_966" data-name="Path 966" d="M88,480h5.067v2.533H88Z" transform="translate(-47.133 -390.533)" fill="#6dbbd4"/>
    <path id="Path_967" data-name="Path 967" d="M408,480h5.067v2.533H408Z" transform="translate(-316.467 -390.533)" fill="#6dbbd4"/>
    <path id="Path_968" data-name="Path 968" d="M125.067,368a5.067,5.067,0,1,0,5.067,5.067A5.067,5.067,0,0,0,125.067,368Zm0,7.6a2.533,2.533,0,1,1,2.533-2.533A2.533,2.533,0,0,1,125.067,375.6Z" transform="translate(-74.067 -296.267)" fill="#6dbbd4"/>
    <path id="Path_969" data-name="Path 969" d="M88,392h2.533v2.533H88Z" transform="translate(-47.133 -316.467)" fill="#6dbbd4"/>
    <path id="Path_970" data-name="Path 970" d="M200,392h2.533v2.533H200Z" transform="translate(-141.4 -316.467)" fill="#6dbbd4"/>
  </g>
</svg>
