<svg xmlns="http://www.w3.org/2000/svg" xmlns:xlink="http://www.w3.org/1999/xlink" width="40" height="40" viewBox="0 0 40 40">
  <defs>
    <clipPath id="clip-path">
      <path id="Path_909" data-name="Path 909" d="M0-6.667H40v-40H0Z" transform="translate(0 46.667)" fill="none"/>
    </clipPath>
  </defs>
  <g id="Group_717" data-name="Group 717" transform="translate(0 46.667)">
    <g id="Group_716" data-name="Group 716" transform="translate(0 -46.667)" clip-path="url(#clip-path)">
      <g id="Group_701" data-name="Group 701" transform="translate(0 0.001)">
        <path id="Path_894" data-name="Path 894" d="M-6.667-3.333a20,20,0,0,1-20,20,20,20,0,0,1-20-20,20,20,0,0,1,20-20,20,20,0,0,1,20,20" transform="translate(46.667 23.333)" fill="#fff"/>
      </g>
      <g id="Group_702" data-name="Group 702" transform="translate(8.337 23.506)">
        <path id="Path_895" data-name="Path 895" d="M-3.17-.184C-3.092-.9-3.092-.9-2.431-.9c1,0,2.008.009,3.012,0,.4-.006.555.181.555.555,0,2.217,0,4.434,0,6.651,0,.422-.158.57-.595.57-5.133,0-10.265.014-15.4-.018A4.066,4.066,0,0,1-16.5,6.43c-1.548-.727-3.067-1.516-4.593-2.289a1.822,1.822,0,0,1-.919-2.452,1.907,1.907,0,0,1,2.53-.863c1.255.6,2.5,1.226,3.742,1.839.12.059.243.11.337.153a5.175,5.175,0,0,1-.167-1.134A1.943,1.943,0,0,1-13.544-.134c.934-.014,1.869.009,2.8-.012a1.529,1.529,0,0,0,.7-.185,6.194,6.194,0,0,1,6.066-.3c.261.124.5.284.8.452M-9.149,6.089c1.869,0,3.739-.005,5.608.006.3,0,.412-.076.409-.4-.015-1.521,0-3.041-.016-4.562a.667.667,0,0,0-.21-.453A5.312,5.312,0,0,0-6.3-.5,5.866,5.866,0,0,0-9.72.371a2.36,2.36,0,0,1-1.022.264c-.947.036-1.9,0-2.845.02A1.148,1.148,0,0,0-14.8,1.812a1.148,1.148,0,0,0,1.265,1.146q1.59.008,3.181,0c.314,0,.6.068.589.427s-.321.361-.594.361c-.824,0-1.653-.064-2.469.014a7.325,7.325,0,0,1-4.654-1.086,23.416,23.416,0,0,0-2.241-1.118,1.234,1.234,0,0,0-1.307.133.948.948,0,0,0-.349.972,1.134,1.134,0,0,0,.733.844c1.432.716,2.871,1.422,4.3,2.151a3.956,3.956,0,0,0,1.847.435c1.786-.006,3.572,0,5.358,0m6.813-.034H.31V-.116H-2.337Zm0-6.171" transform="translate(22.189 1.288)" fill="#2972bd"/>
      </g>
      <g id="Group_703" data-name="Group 703" transform="translate(18.836 11.467)">
        <path id="Path_896" data-name="Path 896" d="M-.4-.072a1.736,1.736,0,0,0,.29-.16,1.345,1.345,0,0,1,1.63,0A.858.858,0,0,0,2-.1,1.345,1.345,0,0,1,3.322.851a.749.749,0,0,0,.276.363,1.285,1.285,0,0,1,.52,1.531.755.755,0,0,0,0,.459A1.276,1.276,0,0,1,3.6,4.733a.751.751,0,0,0-.275.363,1.344,1.344,0,0,1-1.4.948.555.555,0,0,0-.332.083A1.283,1.283,0,0,1-.16,6.132a.55.55,0,0,0-.33-.091A1.317,1.317,0,0,1-1.921,5.035a.6.6,0,0,0-.243-.291,1.239,1.239,0,0,1-.512-1.593.587.587,0,0,0-.01-.377,1.259,1.259,0,0,1,.507-1.564A.643.643,0,0,0-1.92.891,1.363,1.363,0,0,1-.4-.072m-.755,4.826A.463.463,0,0,0-.432,5.2a.452.452,0,0,1,.691.2.48.48,0,0,0,.889.013.457.457,0,0,1,.687-.217c.437.209.769-.049.706-.531a.412.412,0,0,1,.387-.525c.539-.1.659-.439.29-.838a.41.41,0,0,1,0-.65c.367-.394.252-.734-.3-.837a.406.406,0,0,1-.379-.525C2.6.825,2.268.551,1.859.754A.457.457,0,0,1,1.146.54.478.478,0,0,0,.275.527.478.478,0,0,1-.474.74a.457.457,0,0,0-.671.495c.055.375-.069.527-.44.591-.447.078-.557.468-.248.8a.448.448,0,0,1,0,.718.56.56,0,0,0-.13.47.571.571,0,0,0,.388.308c.354.057.492.219.422.634" transform="translate(2.782 0.507)" fill="#2972bd"/>
      </g>
      <g id="Group_704" data-name="Group 704" transform="translate(15.95 17.478)">
        <path id="Path_897" data-name="Path 897" d="M-.572-.52l-.387.414L-4-3.237l.422-.4L-.572-.52" transform="translate(4.002 3.64)" fill="#2972bd"/>
      </g>
      <g id="Group_705" data-name="Group 705" transform="translate(24.047 19.229)">
        <path id="Path_898" data-name="Path 898" d="M-.074-.551-.521-.959l2.943-2.9.426.428L-.074-.551" transform="translate(0.521 3.854)" fill="#2972bd"/>
      </g>
      <g id="Group_706" data-name="Group 706" transform="translate(14.328 20.224)">
        <path id="Path_899" data-name="Path 899" d="M-.39,0,.088.386-2.275,2.725c-.136-.139-.3-.3-.453-.458L-.39,0" transform="translate(2.728)" fill="#2972bd"/>
      </g>
      <g id="Group_707" data-name="Group 707" transform="translate(18.168 17.38)">
        <path id="Path_900" data-name="Path 900" d="M-.467-.4-.879.065-3.27-2.356l.411-.43L-.467-.4" transform="translate(3.27 2.786)" fill="#2972bd"/>
      </g>
      <g id="Group_708" data-name="Group 708" transform="translate(15.498 21.31)">
        <path id="Path_901" data-name="Path 901" d="M-.077-.458-.542-.883,1.783-3.2l.462.474L-.077-.458" transform="translate(0.542 3.203)" fill="#2972bd"/>
      </g>
      <g id="Group_709" data-name="Group 709" transform="translate(12.01 17.871)">
        <path id="Path_902" data-name="Path 902" d="M-.385,0,.107.412-2.233,2.724l-.459-.44L-.385,0" transform="translate(2.692)" fill="#2972bd"/>
      </g>
      <g id="Group_710" data-name="Group 710" transform="translate(13.251 19.019)">
        <path id="Path_903" data-name="Path 903" d="M-.372,0,.077.408-2.2,2.732c-.131-.149-.284-.322-.4-.46L-.372,0" transform="translate(2.605)" fill="#2972bd"/>
      </g>
      <g id="Group_711" data-name="Group 711" transform="translate(17.786 22.482)">
        <path id="Path_904" data-name="Path 904" d="M-.088-.272l-.53-.483L.549-1.9l.489.522L-.088-.272" transform="translate(0.618 1.901)" fill="#2972bd"/>
      </g>
      <g id="Group_712" data-name="Group 712" transform="translate(16.723 15.94)">
        <path id="Path_905" data-name="Path 905" d="M-.078,0,.831.863l-.526.5L-.548.408-.078,0" transform="translate(0.548)" fill="#2972bd"/>
      </g>
      <g id="Group_713" data-name="Group 713" transform="translate(27.489 17.78)">
        <path id="Path_906" data-name="Path 906" d="M-.083-.214-.583-.7c.272-.274.525-.527.8-.8L.724-.98l-.807.766" transform="translate(0.583 1.499)" fill="#2972bd"/>
      </g>
      <g id="Group_714" data-name="Group 714" transform="translate(28.931 28.569)">
        <path id="Path_907" data-name="Path 907" d="M-.1,0A.54.54,0,0,1,.477.566a.536.536,0,0,1-.543.561A.58.58,0,0,1-.673.576.582.582,0,0,1-.1,0" transform="translate(0.673 0)" fill="#2972bd"/>
      </g>
      <g id="Group_715" data-name="Group 715" transform="translate(9.889 8.331)">
        <path id="Path_908" data-name="Path 908" d="M-3.351-.391c-.344-.005-.688,0-1.071,0,0-.594,0-1.135,0-1.676,0-.566-.1-.668-.646-.668-2.163,0-4.324-.008-6.487.01a.977.977,0,0,0-.621.247q-5.52,5.487-11.017,11c-.35.35-.348.476.007.831q2.157,2.163,4.318,4.322c.057.057.12.109.151.136l.629-.523c-1.488-1.479-2.939-2.92-4.395-4.368.06-.065.114-.129.173-.188q5.221-5.224,10.45-10.439a.91.91,0,0,1,.58-.231c1.9-.017,3.795-.01,5.691-.009.121,0,.243.016.4.028v1.5c-.473.063-.821.083-1.125-.36A1.1,1.1,0,0,0-7.943-.839,1.174,1.174,0,0,0-7.953.813,1.093,1.093,0,0,0-6.324.793.988.988,0,0,1-5.185.434c0,1.228-.009,2.439.007,3.65a.871.871,0,0,1-.281.693q-3.533,3.51-7.047,7.038c-.106.106-.206.218-.305.324l.517.527a1.376,1.376,0,0,0,.13-.1q3.775-3.77,7.541-7.55A.832.832,0,0,0-4.431,4.5c.024-.581.009-1.163.009-1.793.394,0,.74.005,1.084,0A1.577,1.577,0,0,0-1.688,1.171,1.576,1.576,0,0,0-3.351-.391m-3.767.9a.521.521,0,0,1-.521-.521.521.521,0,0,1,.521-.521A.522.522,0,0,1-6.6-.015a.522.522,0,0,1-.522.521m3.946,1.425c-.4.027-.8.006-1.224.006V.414c.435,0,.838-.024,1.237.006a.687.687,0,0,1,.67.749.752.752,0,0,1-.683.762" transform="translate(23.453 2.738)" fill="#2972bd"/>
      </g>
    </g>
  </g>
</svg>
