<svg xmlns="http://www.w3.org/2000/svg" xmlns:xlink="http://www.w3.org/1999/xlink" width="40" height="40" viewBox="0 0 40 40">
  <defs>
    <clipPath id="clip-path">
      <path id="Path_893" data-name="Path 893" d="M0-6.667H40v-40H0Z" transform="translate(0 46.667)" fill="none"/>
    </clipPath>
  </defs>
  <g id="Group_677" data-name="Group 677" transform="translate(0 46.667)">
    <g id="Group_700" data-name="Group 700" transform="translate(0 -46.667)" clip-path="url(#clip-path)">
      <g id="Group_697" data-name="Group 697" transform="translate(0 0.001)">
        <path id="Path_890" data-name="Path 890" d="M-6.667-3.333a20,20,0,0,1-20,20,20,20,0,0,1-20-20,20,20,0,0,1,20-20,20,20,0,0,1,20,20" transform="translate(46.667 23.333)" fill="#fff"/>
      </g>
      <g id="Group_698" data-name="Group 698" transform="translate(6.838 14.419)">
        <path id="Path_891" data-name="Path 891" d="M-4.125-2.568H-5.671V-17.331a.667.667,0,0,0-1.334,0V-2.568H-9.6V-10.81a.667.667,0,0,0-1.333,0v8.241h-2.6V-12.936a.667.667,0,0,0-1.334,0V-2.568h-2.6v-4.9a.667.667,0,0,0-1.334,0v4.9h-2.6V-8.928a.668.668,0,0,0-1.335,0v6.359h-2.6V-7.078a.667.667,0,0,0-1.334,0v4.509h-1.546a.656.656,0,1,0,0,1.312H-4.125a.656.656,0,1,0,0-1.312" transform="translate(28.874 17.978)" fill="#2972bd"/>
      </g>
      <g id="Group_699" data-name="Group 699" transform="translate(7.646 8.859)">
        <path id="Path_892" data-name="Path 892" d="M-4.082,0H-9.959a.656.656,0,1,0,0,1.312h4.268l-4.387,4.317L-11.43,4.3h0a.673.673,0,0,0-.919-.021L-19,10.244-21.792,7.5l0,0a.673.673,0,0,0-.9-.039l-5.641,4.677a.658.658,0,0,0,.855,1L-22.3,8.853l2.806,2.762a.675.675,0,0,0,.944,0l6.631-5.945,1.373,1.351a.675.675,0,0,0,.944,0l4.858-4.78v4.4a.667.667,0,0,0,1.334,0V.657A.662.662,0,0,0-4.082,0" transform="translate(28.573)" fill="#2972bd"/>
      </g>
    </g>
  </g>
</svg>
