<svg id="expand" xmlns="http://www.w3.org/2000/svg" width="76.001" height="76" viewBox="0 0 76.001 76">
  <g id="Group_771" data-name="Group 771" transform="translate(19.826 19.826)">
    <g id="Group_770" data-name="Group 770">
      <path id="Path_971" data-name="Path 971" d="M113.326,81.921H86.862a4.947,4.947,0,0,0-4.942,4.941v26.465a4.947,4.947,0,0,0,4.942,4.941h26.464a4.947,4.947,0,0,0,4.942-4.941V86.862A4.947,4.947,0,0,0,113.326,81.921Zm1.638,31.407a1.639,1.639,0,0,1-1.638,1.637H86.862a1.639,1.639,0,0,1-1.638-1.637V86.862a1.639,1.639,0,0,1,1.638-1.637h26.464a1.639,1.639,0,0,1,1.638,1.637Z" transform="translate(-81.92 -81.921)" fill="#6dbbd4"/>
    </g>
  </g>
  <g id="Group_773" data-name="Group 773" transform="translate(0)">
    <g id="Group_772" data-name="Group 772">
      <path id="Path_972" data-name="Path 972" d="M19.33,16.954,5.65,3.349h5.733a1.66,1.66,0,0,0,1.644-1.675A1.66,1.66,0,0,0,11.384,0H1.644A1.66,1.66,0,0,0,0,1.675V11.56a1.66,1.66,0,0,0,1.644,1.675A1.659,1.659,0,0,0,3.288,11.56V5.681L17.034,19.35a1.623,1.623,0,0,0,2.325-.028A1.7,1.7,0,0,0,19.33,16.954Z" fill="#6dbbd4"/>
    </g>
  </g>
  <g id="Group_775" data-name="Group 775" transform="translate(56.174 0)">
    <g id="Group_774" data-name="Group 774">
      <path id="Path_973" data-name="Path 973" d="M250.289,0h-9.74a1.66,1.66,0,0,0-1.644,1.675,1.66,1.66,0,0,0,1.644,1.675h5.733l-13.68,13.6a1.7,1.7,0,0,0-.028,2.368,1.623,1.623,0,0,0,2.325.028L248.646,5.682v5.879a1.644,1.644,0,1,0,3.288,0V1.677A1.66,1.66,0,0,0,250.289,0Z" transform="translate(-232.107 -0.002)" fill="#6dbbd4"/>
    </g>
  </g>
  <g id="Group_777" data-name="Group 777" transform="translate(0 56.174)">
    <g id="Group_776" data-name="Group 776">
      <path id="Path_974" data-name="Path 974" d="M19.359,232.612a1.622,1.622,0,0,0-2.325-.029L3.288,246.252v-5.879A1.659,1.659,0,0,0,1.644,238.7,1.66,1.66,0,0,0,0,240.373v9.885a1.66,1.66,0,0,0,1.644,1.675h9.74a1.675,1.675,0,0,0,0-3.349H5.65l13.68-13.6A1.7,1.7,0,0,0,19.359,232.612Z" transform="translate(0 -232.107)" fill="#6dbbd4"/>
    </g>
  </g>
  <g id="Group_779" data-name="Group 779" transform="translate(56.174 56.174)">
    <g id="Group_778" data-name="Group 778">
      <path id="Path_975" data-name="Path 975" d="M250.289,238.7a1.659,1.659,0,0,0-1.644,1.675v5.879L234.9,232.583a1.622,1.622,0,0,0-2.325.029,1.7,1.7,0,0,0,.028,2.368l13.68,13.6h-5.733a1.675,1.675,0,0,0,0,3.349h9.74a1.66,1.66,0,0,0,1.644-1.675v-9.885A1.66,1.66,0,0,0,250.289,238.7Z" transform="translate(-232.106 -232.107)" fill="#6dbbd4"/>
    </g>
  </g>
</svg>
