<svg xmlns="http://www.w3.org/2000/svg" xmlns:xlink="http://www.w3.org/1999/xlink" width="40" height="39.983" viewBox="0 0 40 39.983">
  <defs>
    <clipPath id="clip-path">
      <path id="Path_921" data-name="Path 921" d="M0,9.265H40V-30.718H0Z" transform="translate(0 30.718)" fill="none"/>
    </clipPath>
  </defs>
  <g id="Group_730" data-name="Group 730" transform="translate(0 30.718)">
    <g id="Group_729" data-name="Group 729" transform="translate(0 -30.718)" clip-path="url(#clip-path)">
      <g id="Group_718" data-name="Group 718" transform="translate(0.001)">
        <path id="Path_910" data-name="Path 910" d="M9.269,4.633a20,20,0,0,1-20,19.992,20,20,0,0,1-20-19.992,20,20,0,0,1,20-19.992,20,20,0,0,1,20,19.992" transform="translate(30.731 15.359)" fill="#fff"/>
      </g>
      <g id="Group_719" data-name="Group 719" transform="translate(3.379 19.368)">
        <path id="Path_911" data-name="Path 911" d="M3.689,1.043C1.745.3-.037-.475-1.875-1.074a26.292,26.292,0,0,0-9.312-1.173c-.135.005-.3.06-.4,0-.237-.147-.568-.314-.626-.534a.517.517,0,0,1,.557-.643c1.177-.017,2.353-.06,3.527-.014A31.064,31.064,0,0,1,3.938-.1,2.956,2.956,0,0,0,6.47-.011,30.737,30.737,0,0,1,18.759-1.765c.135.005.268.033.4.051.389.055.651.3.54.663a.9.9,0,0,1-.617.514,9.094,9.094,0,0,1-1.443-.029A29.7,29.7,0,0,0-2.079,6.173c-1.234.988-2.362,2.106-3.553,3.146a1.294,1.294,0,0,1-.694.325.6.6,0,0,1-.449-.367.86.86,0,0,1,.159-.672c.522-.568,1.092-1.092,1.653-1.623a2.176,2.176,0,0,1,.392-.243c-.029-.083-.056-.167-.085-.251-1.17-.168-2.339-.345-3.509-.5-.458-.061-.924-.078-1.386-.1-.42-.023-.655-.234-.631-.656s.3-.54.682-.534a18.65,18.65,0,0,1,5.583.838.783.783,0,0,0,.836-.139c.738-.587,1.5-1.149,2.387-1.827C-1.9,3.191-2.989,2.787-4.109,2.518a24.916,24.916,0,0,0-6.033-.609c-.328,0-.656-.017-.983-.047a.548.548,0,0,1-.569-.6.584.584,0,0,1,.638-.6C-10.381.646-9.7.645-9.028.669A24.619,24.619,0,0,1,.186,2.65a.765.765,0,0,0,.582.013c.92-.484,1.821-1,2.921-1.621" transform="translate(12.229 3.458)" fill="#2972bd"/>
      </g>
      <g id="Group_720" data-name="Group 720" transform="translate(11.981 25.282)">
        <path id="Path_912" data-name="Path 912" d="M4.926.012c.251,0,.5,0,.754,0,.413-.007.687.177.691.6s-.282.591-.685.618c-1.309.089-2.623.143-3.926.292A27.835,27.835,0,0,0-12.8,7.5c-.811.652-1.565,1.378-2.323,2.092-.32.3-.652.493-1,.15-.377-.371-.172-.732.15-1.05A28.717,28.717,0,0,1-2.564,1.073,38.006,38.006,0,0,1,1.182.359C2.421.177,3.674.09,4.921-.039c0,.017,0,.034.005.051" transform="translate(16.333 0.039)" fill="#2972bd"/>
      </g>
      <g id="Group_721" data-name="Group 721" transform="translate(16.229 13.372)">
        <path id="Path_913" data-name="Path 913" d="M1.617,0A7.335,7.335,0,0,1,8.631,5.889a.617.617,0,0,1-.439.821c-.45.117-.678-.181-.773-.582A6.437,6.437,0,0,0,5.441,2.739C2.1-.272-2.977,1.389-4.105,5.921c-.033.131-.057.264-.1.393-.111.377-.4.592-.737.428a.85.85,0,0,1-.418-.682,10.36,10.36,0,0,1,.7-2.128A6.94,6.94,0,0,1,1.617,0" transform="translate(5.36 0)" fill="#2972bd"/>
      </g>
      <g id="Group_722" data-name="Group 722" transform="translate(16.887 30.012)">
        <path id="Path_914" data-name="Path 914" d="M3.269,0a2.3,2.3,0,0,1,.739.335.632.632,0,0,1,.07.62,1.251,1.251,0,0,1-.722.368c-1.5.221-3.033.306-4.513.626A19.956,19.956,0,0,0-9.379,5.994c-.12.1-.241.193-.364.286-.338.255-.685.3-.959-.065a.581.581,0,0,1,.207-.893c1.17-.812,2.3-1.7,3.53-2.407A23.054,23.054,0,0,1,3.269,0" transform="translate(10.837)" fill="#2972bd"/>
      </g>
      <g id="Group_723" data-name="Group 723" transform="translate(25.035 7.866)">
        <path id="Path_915" data-name="Path 915" d="M.508.116C.37.6.269.948.169,1.3c-.2.721-.4,1.445-.609,2.162-.115.388-.341.676-.8.54-.44-.131-.514-.45-.389-.869.3-.993.573-1.993.859-2.989.1-.359.346-.608.711-.505.228.065.4.329.566.478" transform="translate(1.683 0.385)" fill="#2972bd"/>
      </g>
      <g id="Group_724" data-name="Group 724" transform="translate(31.008 16.381)">
        <path id="Path_916" data-name="Path 916" d="M.91,0c.128.137.411.31.457.531a.725.725,0,0,1-.318.633c-1.14.338-2.295.638-3.461.872-.174.035-.582-.319-.6-.523A.835.835,0,0,1-2.531.867C-1.5.552-.45.319.594.057.65.043.707.036.91,0" transform="translate(3.017)" fill="#2972bd"/>
      </g>
      <g id="Group_725" data-name="Group 725" transform="translate(28.817 11.107)">
        <path id="Path_917" data-name="Path 917" d="M.86.117A2.969,2.969,0,0,1,.528.659C-.211,1.387-.966,2.1-1.713,2.818c-.285.275-.616.379-.92.1a.6.6,0,0,1,.046-.957c.76-.733,1.51-1.48,2.3-2.18a.933.933,0,0,1,.721-.15C.6-.337.709-.066.86.117" transform="translate(2.851 0.389)" fill="#2972bd"/>
      </g>
      <g id="Group_726" data-name="Group 726" transform="translate(19.75 7.821)">
        <path id="Path_918" data-name="Path 918" d="M0,.11C.142-.029.31-.333.515-.361a.791.791,0,0,1,.677.331q.5,1.679.842,3.4a.757.757,0,0,1-.432.613.762.762,0,0,1-.67-.342C.592,2.523.327,1.384,0,.11" transform="translate(0 0.364)" fill="#2972bd"/>
      </g>
      <g id="Group_727" data-name="Group 727" transform="translate(14.504 10.719)">
        <path id="Path_919" data-name="Path 919" d="M.813.714c-.13.173-.224.424-.379.469A.829.829,0,0,1-.248,1.1C-1.064.313-1.861-.5-2.607-1.349a.855.855,0,0,1,.029-.8c.212-.31.578-.266.85.01Q-.576-.971.558.218a2.151,2.151,0,0,1,.255.5" transform="translate(2.695 2.368)" fill="#2972bd"/>
      </g>
      <g id="Group_728" data-name="Group 728" transform="translate(11.274 16.066)">
        <path id="Path_920" data-name="Path 920" d="M.9.5C-.136.2-1.057-.058-1.977-.321a1.5,1.5,0,0,1-.594-.2c-.189-.174-.45-.5-.394-.653.078-.216.463-.508.648-.466,1.138.26,2.265.581,3.372.948.171.056.328.465.3.692C1.342.188,1.046.347.9.5" transform="translate(2.973 1.642)" fill="#2972bd"/>
      </g>
    </g>
  </g>
</svg>
