<svg xmlns="http://www.w3.org/2000/svg" width="76.016" height="76" viewBox="0 0 76.016 76">
  <g id="globally" transform="translate(0 -0.051)">
    <g id="Group_780" data-name="Group 780" transform="translate(0 0.05)">
      <path id="Path_976" data-name="Path 976" d="M38.021.05A38,38,0,0,0,3.083,23.093l-.474.157.184.551A38,38,0,1,0,38.021.05ZM67.828,57.209l-1.951-1.95V50.717a1.265,1.265,0,0,0-.127-.566l-4.94-9.866V35.517a1.267,1.267,0,0,0-.564-1.054l-3.8-2.533a1.267,1.267,0,0,0-1.013-.175l-4.654,1.163-7.817-3.354-1.075-7.534,2.98-2.979h6.4l2.153,3.236a1.267,1.267,0,0,0,.846.546l7.6,1.267a1.256,1.256,0,0,0,.608-.048l7-2.333A35.34,35.34,0,0,1,67.828,57.209ZM62.6,12.532,60.544,13.9,54.8,12.756l-3.725-1.24a1.244,1.244,0,0,0-.707-.028l-4.709,1.177L43.6,11.977l1.53-3.06H49.41a1.266,1.266,0,0,0,.566-.133l4.383-2.191A35.6,35.6,0,0,1,62.6,12.532ZM24.136,5.412l3.04,2.027a1.265,1.265,0,0,0,.5.2L33.81,8.657l-.6,1.792-3.2,1.068a1.267,1.267,0,0,0-.685.548l-3.638,6.062-5.843,3.506-8.613,1.23a1.267,1.267,0,0,0-1.089,1.253v3.8a1.267,1.267,0,0,0,.371.9l2.162,2.162v2.176L7.407,29.637,5.5,23.9A35.671,35.671,0,0,1,24.136,5.412ZM20.53,46.942,14.8,45.8l-2.128-4.245V38.574l4.72-4.72,1.747,3.495a1.267,1.267,0,0,0,1.134.7h8.15l3.431,5.719a1.267,1.267,0,0,0,1.086.614h3.521l-.887,4.442-4.8,4.8a1.267,1.267,0,0,0-.372.9v3.167L25.85,61.1a1.267,1.267,0,0,0-.507,1.013v4.575l-1.576-.522-2.224-5.563V48.183A1.267,1.267,0,0,0,20.53,46.942ZM16.723,66.414A35.458,35.458,0,0,1,4.09,27.694L5.143,30.85a1.266,1.266,0,0,0,.5.654l6.314,4.209-1.44,1.441a1.267,1.267,0,0,0-.371.9v3.8a1.266,1.266,0,0,0,.133.566l2.533,5.067a1.267,1.267,0,0,0,.887.675l5.32,1.063V60.85a1.267,1.267,0,0,0,.09.47l2.533,6.333a1.267,1.267,0,0,0,.776.731l3.8,1.267a1.245,1.245,0,0,0,.394.066,1.267,1.267,0,0,0,1.267-1.267v-5.7l4.56-3.42a1.267,1.267,0,0,0,.507-1.013V55.041l4.7-4.7a1.268,1.268,0,0,0,.346-.647l1.267-6.333A1.267,1.267,0,0,0,38.01,41.85H33.66l-3.431-5.719a1.267,1.267,0,0,0-1.086-.614H21.06L18.883,31.15a1.266,1.266,0,0,0-.931-.684,1.241,1.241,0,0,0-1.1.355L15.21,32.459V30.45a1.267,1.267,0,0,0-.371-.9l-2.162-2.162V25.215l7.78-1.111a1.273,1.273,0,0,0,.472-.168l6.333-3.8A1.266,1.266,0,0,0,27.7,19.7l3.559-5.932,3.355-1.12a1.254,1.254,0,0,0,.8-.8l1.267-3.8A1.267,1.267,0,0,0,35.685,6.4L28.353,5.181l-1.288-.859a35.369,35.369,0,0,1,24.361.906L49.111,6.383H44.343a1.267,1.267,0,0,0-1.14.7L40.67,12.15a1.267,1.267,0,0,0,.733,1.767l3.8,1.267a1.244,1.244,0,0,0,.707.028l4.709-1.177,3.45,1.149a.931.931,0,0,0,.152.041l6.333,1.267a1.258,1.258,0,0,0,.951-.187l2.883-1.923a35.734,35.734,0,0,1,3.81,5.091l-6.232,2.077L55.22,20.424,52.991,17.08a1.267,1.267,0,0,0-1.048-.564h-7.6a1.267,1.267,0,0,0-.9.371l-3.8,3.8a1.267,1.267,0,0,0-.358,1.075l1.267,8.867a1.267,1.267,0,0,0,.76.984l8.867,3.8a1.252,1.252,0,0,0,.806.065l4.523-1.131,2.765,1.847v4.389a1.265,1.265,0,0,0,.127.566l4.94,9.866v4.768a1.267,1.267,0,0,0,.371.9l2.65,2.651A35.458,35.458,0,0,1,16.723,66.414Z" transform="translate(0 -0.05)" fill="#6dbbd4"/>
    </g>
  </g>
</svg>
