<svg xmlns="http://www.w3.org/2000/svg" width="79.303" height="76" viewBox="0 0 79.303 76">
  <g id="growth" transform="translate(0 -1)">
    <path id="Path_955" data-name="Path 955" d="M77.651,26.3h-76a1.652,1.652,0,0,1,0-3.3h76a1.652,1.652,0,1,1,0,3.3Z" transform="translate(0 50.695)" fill="#6dbbd4"/>
    <path id="Path_956" data-name="Path 956" d="M19.174,40.13H2.652A1.653,1.653,0,0,1,1,38.478V20.3A3.308,3.308,0,0,1,4.3,17H17.522a3.308,3.308,0,0,1,3.3,3.3V38.478A1.653,1.653,0,0,1,19.174,40.13ZM4.3,36.826H17.522V20.3H4.3Z" transform="translate(2.304 36.87)" fill="#6dbbd4"/>
    <path id="Path_957" data-name="Path 957" d="M27.174,53.956H10.652A1.653,1.653,0,0,1,9,52.3v-38A3.308,3.308,0,0,1,12.3,11H25.522a3.308,3.308,0,0,1,3.3,3.3v38A1.653,1.653,0,0,1,27.174,53.956ZM12.3,50.652H25.522V14.3H12.3Z" transform="translate(20.739 23.044)" fill="#6dbbd4"/>
    <path id="Path_958" data-name="Path 958" d="M35.174,49.347H18.652A1.653,1.653,0,0,1,17,47.7V16.3A3.308,3.308,0,0,1,20.3,13H33.522a3.308,3.308,0,0,1,3.3,3.3V47.7A1.653,1.653,0,0,1,35.174,49.347ZM20.3,46.043H33.522V16.3H20.3Z" transform="translate(39.173 27.652)" fill="#6dbbd4"/>
    <path id="Path_959" data-name="Path 959" d="M3.653,34.044a1.651,1.651,0,0,1-1.17-2.819L19,14.7a1.64,1.64,0,0,1,1.57-.436L46.1,20.648,65.268,1.483A1.652,1.652,0,0,1,67.6,3.819L47.779,23.645a1.645,1.645,0,0,1-1.57.433L20.68,17.7,4.819,33.561a1.646,1.646,0,0,1-1.166.482Z" transform="translate(4.608 0)" fill="#6dbbd4"/>
    <path id="Path_960" data-name="Path 960" d="M31.869,17.522a1.653,1.653,0,0,1-1.652-1.652V4.3H18.652a1.652,1.652,0,0,1,0-3.3H31.869a1.653,1.653,0,0,1,1.652,1.652V15.869A1.653,1.653,0,0,1,31.869,17.522Z" transform="translate(39.173 0.001)" fill="#6dbbd4"/>
  </g>
</svg>
