<?xml version="1.0" encoding="utf-8"?>
<svg version="1.1" id="Layer_1"
	xmlns="http://www.w3.org/2000/svg"
	xmlns:xlink="http://www.w3.org/1999/xlink" width="64" height="80" x="0px" y="0px" viewBox="0 0 64 80" style="enable-background:new 0 0 64 80; stroke:#fff; fill:#fff;" xml:space="preserve">
	<path d="M57.1,29.5l5.1-2.6l-2.7-8.3l-5.6,0.9l-3-4.1l2.6-5.1l-7.1-5.1l-4.1,4c-1.1-0.4-1.8-0.6-2.6-1c-0.9-0.4-1.9-0.7-3.3-1.2
	l-0.7,2c1.4,0.4,2.3,0.8,3.2,1.1c0.9,0.4,1.9,0.7,3.3,1.2l0.6,0.2l3.7-3.7l4.4,3.1l-2.4,4.6l4.5,6.1l5.2-0.8l1.7,5l-4.6,2.4v7.5
	l4.6,2.4l-1.7,5L53,42.4l-4.5,6.1l2.4,4.6l-4.4,3.1l-3.7-3.7l-7.2,2.3L34.7,60h-5.4l-0.8-5.1l-7.2-2.3l-3.7,3.7l-4.4-3.1l2.4-4.6
	L11,42.4l-5.2,0.8l-1.7-5l4.6-2.4v-7.5l-4.6-2.4l1.7-5l5.2,0.8l4.5-6.1L13.1,11l4.4-3.1l3.7,3.7l0.6-0.2c1.4-0.5,2.4-0.8,3.3-1.2
	s1.8-0.7,3.2-1.1L27.7,7c-1.4,0.5-2.4,0.8-3.3,1.2c-0.8,0.3-1.6,0.6-2.6,1l-4.1-4l-7.1,5.1l2.6,5.1l-3,4.1l-5.6-0.9l-2.7,8.3L7,29.5
	v5.1l-5.1,2.6l2.7,8.3l5.6-0.9l3,4.1l-2.6,5.1l7.1,5.1l4.1-4l4.9,1.6l0.9,5.6h8.8l0.9-5.6l4.9-1.6l4.1,4l7.1-5.1l-2.6-5.1l3-4.1
	l5.6,0.9l2.7-8.3L57,34.6L57.1,29.5z"/>
	<path d="M33,22h-2c-1.7,0-3,1.3-3,3v2h-3c-1.7,0-3,1.3-3,3v8c0,1.7,1.3,3,3,3h14c1.7,0,3-1.3,3-3v-8c0-1.7-1.3-3-3-3h-3v-2
	C36,23.3,34.7,22,33,22z M30,25c0-0.6,0.4-1,1-1h2c0.6,0,1,0.4,1,1v2h-4V25z M39,39H25c-0.6,0-1-0.4-1-1v-5h5v1c0,1.7,1.3,3,3,3
	s3-1.3,3-3v-1h5v5C40,38.6,39.6,39,39,39z M31,33h2v1c0,0.6-0.4,1-1,1s-1-0.4-1-1V33z M40,30v1H24v-1c0-0.6,0.4-1,1-1h14
	C39.6,29,40,29.4,40,30z"/>
	<path d="M14.1,34.3c1.1,8.2,7.6,14.6,15.8,15.6C30.6,50,31.3,50,32,50c4.4,0,8.7-1.6,12-4.6c7.4-6.6,8-18,1.4-25.4
	c-2.6-2.9-6.2-4.9-10-5.7C34,14,33,12.8,33,11.4V2h-2v9.4c0,2.4,1.7,4.4,4,4.9c8.7,1.7,14.4,10,12.7,18.7S37.7,49.4,29,47.7
	S14.6,37.7,16.3,29c0.9-4.6,3.7-8.5,7.7-10.9V22h2v-7h-7v2h3.1C16.3,20.8,13.3,27.5,14.1,34.3z"/>
</svg>
