<?xml version="1.0" encoding="utf-8"?>
<!-- Generator: Adobe Illustrator 25.0.1, SVG Export Plug-In . SVG Version: 6.00 Build 0)  -->
<svg version="1.1" id="Layer_1"
	xmlns="http://www.w3.org/2000/svg"
	xmlns:xlink="http://www.w3.org/1999/xlink" x="0px" y="0px" width="100px" height="125px" viewBox="0 0 100 125" style="enable-background:new 0 0 100 125;stroke:#fff; fill:#fff;" xml:space="preserve">
	<g>
		<path d="M59.1,79.8l-0.3-1.4H41.2l-0.3,1.4c-0.8,3.8-2.5,7.4-5,10.4l-2.3,2.9h32.9l-2.3-2.9C61.7,87.2,59.9,83.5,59.1,79.8z"/>
		<path d="M95.9,6.9H4.1c-1.9,0-3.5,1.6-3.5,3.5v61.1c0,1.9,1.6,3.5,3.5,3.5h91.8c1.9,0,3.5-1.6,3.5-3.5V10.4
		C99.4,8.5,97.8,6.9,95.9,6.9z M92.6,68.2H7.4V13.6h85.3L92.6,68.2L92.6,68.2z"/>
		<polygon points="81.5,35.5 81.5,22.8 68.8,22.8 68.8,25.6 76.6,25.6 63,39.2 40.7,39.2 18.5,61.5 81.5,61.5 81.5,58.6 75.9,58.6 
		75.9,34.2 66.1,44 66.1,58.6 62.9,58.6 62.9,44.8 53.1,44.8 53.1,58.6 49.8,58.6 49.8,44.8 43,44.8 40.1,47.8 40.1,58.6 36.8,58.6 
		36.8,51 29.2,58.6 25.4,58.6 41.9,42.1 64.2,42.1 78.7,27.6 78.7,35.5 	"/>
	</g>
</svg>
