<?xml version="1.0" encoding="utf-8"?>
<svg version="1.0" id="Layer_1" width="27" height="27"
	xmlns="http://www.w3.org/2000/svg"
	xmlns:xlink="http://www.w3.org/1999/xlink" x="0px" y="0px" viewBox="0 0 60 60" enable-background="new 0 0 60 60" xml:space="preserve">
	<g>
		<g>
			<path d="M8,57.5c-1.381,0-2.5-1.119-2.5-2.5V15c0-1.381,1.119-2.5,2.5-2.5s2.5,1.119,2.5,2.5v40C10.5,56.381,9.381,57.5,8,57.5z" />
		</g>
		<g>
			<path d="M28.5,58c-1.381,0-2.5-1.119-2.5-2.5v-40c0-1.381,1.119-2.5,2.5-2.5s2.5,1.119,2.5,2.5v40C31,56.881,29.881,58,28.5,58z" />
		</g>
		<g>
			<path d="M52.5,57c-1.381,0-2.5-1.119-2.5-2.5V23.666c-0.716-5.028-5.292-4.786-6.207-4.683C43.702,18.993,43.592,19,43.5,19
			c-7.787,0-13.079,5.852-13.132,5.911c-0.916,1.031-2.496,1.125-3.529,0.208c-1.031-0.917-1.125-2.498-0.207-3.53
			c0.273-0.308,6.795-7.517,16.719-7.588c4.218-0.458,10.681,1.597,11.63,9.189C54.993,23.293,55,23.396,55,23.5v31
			C55,55.881,53.881,57,52.5,57z"/>
		</g>
		<g>
			<circle cx="8" cy="7" r="3"/>
		</g>
	</g>
</svg>
