<svg xmlns="http://www.w3.org/2000/svg" xmlns:xlink="http://www.w3.org/1999/xlink" width="40" height="40" viewBox="0 0 40 40">
  <defs>
    <clipPath id="clip-path">
      <path id="Path_874" data-name="Path 874" d="M0,.315H40v-40H0Z" transform="translate(0 39.685)" fill="none"/>
    </clipPath>
  </defs>
  <g id="Group_675" data-name="Group 675" transform="translate(0 39.685)">
    <g id="Group_679" data-name="Group 679" transform="translate(0 -39.685)" clip-path="url(#clip-path)">
      <g id="Group_675-2" data-name="Group 675" transform="translate(0 -0.001)">
        <path id="Path_870" data-name="Path 870" d="M.315.158a20,20,0,0,1-20,20,20,20,0,0,1-20-20,20,20,0,0,1,20-20,20,20,0,0,1,20,20" transform="translate(39.685 19.843)" fill="#2972bd"/>
      </g>
      <g id="Group_676" data-name="Group 676" transform="translate(16.255 10.809)">
        <path id="Path_871" data-name="Path 871" d="M.133.076A1.867,1.867,0,0,0,.064-.43a2.081,2.081,0,0,0-.287-.629A1.822,1.822,0,0,0-1-1.7a2.676,2.676,0,0,0-1.083-.208q-1.535,0-3.07,0H-9.245c0-.042.008-.083.013-.119.258-1.938.523-3.877.777-5.818h0a1.783,1.783,0,0,0,.014-.219,1.5,1.5,0,0,0-.313-.926,1.563,1.563,0,0,0-.821-.539,1.644,1.644,0,0,0-.449-.062,1.678,1.678,0,0,0-.871.244,1.579,1.579,0,0,0-.611.676c-1.127,2.411-2.277,4.816-3.373,7.249a2.4,2.4,0,0,1-.449.718,1.116,1.116,0,0,1-.278.207,1.3,1.3,0,0,1-.378.124,1.123,1.123,0,0,0-.366.129.885.885,0,0,0-.221.184.936.936,0,0,0-.191.367,1.459,1.459,0,0,0-.049.4V.712q.011,2.466.008,4.933v4.389a1.817,1.817,0,0,0,.04.412.826.826,0,0,0,.122.288.7.7,0,0,0,.173.179.857.857,0,0,0,.326.137,1.679,1.679,0,0,0,.346.03h.026q5.121-.045,10.243-.1a2.037,2.037,0,0,0,1.326-.5,1.926,1.926,0,0,0,.642-1.249c.007-.073.011-.144.011-.216a1.865,1.865,0,0,0-.229-.9c-.03-.055-.066-.11-.1-.163a2.178,2.178,0,0,0,.524-.18,1.781,1.781,0,0,0,.5-.373,1.98,1.98,0,0,0,.361-.55A2.013,2.013,0,0,0-2.3,6.015a1.812,1.812,0,0,0-.225-.866,2.158,2.158,0,0,0-.153-.241A3.175,3.175,0,0,0-1.7,4.425a1.638,1.638,0,0,0,.455-.53,1.421,1.421,0,0,0,.159-.666,2.16,2.16,0,0,0-.2-.868,3.454,3.454,0,0,0-.189-.368A1.9,1.9,0,0,0-.4,1.412,1.961,1.961,0,0,0,.133.076M-.936.91a1.16,1.16,0,0,1-.816.375l-.13,0h-.995l.437.586a4.1,4.1,0,0,1,.475.784,1.454,1.454,0,0,1,.142.574.682.682,0,0,1-.077.327.8.8,0,0,1-.169.218,1.747,1.747,0,0,1-.51.315,4.537,4.537,0,0,1-.848.259l-.7.15.525.48a2.007,2.007,0,0,1,.422.518,1.067,1.067,0,0,1,.137.519,1.276,1.276,0,0,1-.123.526,1.243,1.243,0,0,1-.227.349,1.105,1.105,0,0,1-.48.3,2.371,2.371,0,0,1-.733.1h-.041l-1.032-.008.8.658a1.816,1.816,0,0,1,.457.526,1.128,1.128,0,0,1,.14.55,1.352,1.352,0,0,1-.008.14,1.189,1.189,0,0,1-.4.774,1.309,1.309,0,0,1-.85.32q-5.119.059-10.24.1h-.02a.9.9,0,0,1-.215-.019l-.024-.009a.24.24,0,0,1-.018-.062,1.3,1.3,0,0,1-.015-.224q0-.708,0-1.414,0-1.486,0-2.973,0-2.467-.008-4.936V.7a.815.815,0,0,1,.017-.185A.2.2,0,0,1-16,.409a.28.28,0,0,1,.148-.059,2.023,2.023,0,0,0,.589-.2A1.925,1.925,0,0,0-14.624-.4a3.646,3.646,0,0,0,.414-.723c1.092-2.423,2.24-4.825,3.369-7.24a.841.841,0,0,1,.328-.36.948.948,0,0,1,.489-.137.884.884,0,0,1,.249.035.832.832,0,0,1,.442.284.753.753,0,0,1,.157.475.892.892,0,0,1-.008.124h0C-9.437-6-9.7-4.063-9.96-2.123c-.024.183-.027.344-.043.556l-.028.393h4.88q1.535,0,3.068,0a1.717,1.717,0,0,1,.973.246,1.07,1.07,0,0,1,.282.281,1.364,1.364,0,0,1,.185.41A1.174,1.174,0,0,1-.6.076,1.233,1.233,0,0,1-.936.91" transform="translate(16.81 9.591)" fill="#fff"/>
      </g>
      <g id="Group_677" data-name="Group 677" transform="translate(10.865 27.925)">
        <path id="Path_872" data-name="Path 872" d="M.009,0H0A1.077,1.077,0,0,0-.76.32a1.092,1.092,0,0,0-.321.758h0v0h0v0h0s0,0,0,0v.009a1.048,1.048,0,0,0,.327.754,1.137,1.137,0,0,0,.763.315H.03a1.06,1.06,0,0,0,.756-.316A1.105,1.105,0,0,0,1.1,1.085V1.067A1.057,1.057,0,0,0,.773.312,1.114,1.114,0,0,0,.009,0M.365,1.071a.368.368,0,0,1-.1.257.322.322,0,0,1-.233.1H.023a.4.4,0,0,1-.269-.109.314.314,0,0,1-.1-.225v0A.357.357,0,0,1-.24.838.346.346,0,0,1,0,.734H0A.386.386,0,0,1,.263.841a.321.321,0,0,1,.1.227Z" transform="translate(1.082)" fill="#fff"/>
      </g>
      <g id="Group_678" data-name="Group 678" transform="translate(8.516 19.68)">
        <path id="Path_873" data-name="Path 873" d="M.056.028q0-1.07,0-2.141a2.1,2.1,0,0,0-.078-.611,1.188,1.188,0,0,0-.194-.388,1.109,1.109,0,0,0-.526-.371,2.092,2.092,0,0,0-.682-.1q-.949,0-1.9,0h-2.2a2.344,2.344,0,0,0-.626.074,1.2,1.2,0,0,0-.4.188,1.074,1.074,0,0,0-.377.533,2.195,2.195,0,0,0-.1.7q0,.916,0,1.832,0,1.282,0,2.564v.367H-7q0,1.14,0,2.282,0,.918,0,1.836a2.2,2.2,0,0,0,.073.594,1.181,1.181,0,0,0,.181.378,1.047,1.047,0,0,0,.5.365,1.935,1.935,0,0,0,.648.094h.183c.779,0,1.555-.009,2.328-.009.554,0,1.108,0,1.659.019h.07a1.732,1.732,0,0,0,.62-.1,1.167,1.167,0,0,0,.372-.224,1.179,1.179,0,0,0,.331-.521,1.945,1.945,0,0,0,.088-.61h0v-.01h0Q.054,4.84.056,2.912V.028m-.73,6.746a1.353,1.353,0,0,1-.04.351.569.569,0,0,1-.073.164.38.38,0,0,1-.174.144A.961.961,0,0,1-1.35,7.5H-1.4c-.56-.015-1.121-.019-1.679-.019-.779,0-1.555.008-2.328.008H-5.59a1.369,1.369,0,0,1-.374-.042A.407.407,0,0,1-6.1,7.381a.323.323,0,0,1-.108-.166,1.368,1.368,0,0,1-.055-.427q0-.916,0-1.832,0-1.323,0-2.649V1.939h-.016q0-1.1,0-2.2,0-.916,0-1.831a1.6,1.6,0,0,1,.046-.425.464.464,0,0,1,.072-.156.341.341,0,0,1,.18-.119,1.493,1.493,0,0,1,.464-.057h2.2q.946,0,1.895,0a1.5,1.5,0,0,1,.409.046.488.488,0,0,1,.157.074.364.364,0,0,1,.124.18,1.325,1.325,0,0,1,.057.434q0,1.07,0,2.14,0,1.442,0,2.884,0,1.926.005,3.853h0Z" transform="translate(7.016 3.582)" fill="#fff"/>
      </g>
    </g>
    <g id="Group_680" data-name="Group 680" transform="translate(10.885 -26.076)">
      <path id="Path_875" data-name="Path 875" d="M0,0H0Z" transform="translate(0 0.001)" fill="#fff"/>
    </g>
    <g id="Group_681" data-name="Group 681" transform="translate(10.884 -26.075)">
      <path id="Path_876" data-name="Path 876" d="M0,0V-.012Z" transform="translate(0 0.012)" fill="#fff"/>
    </g>
    <g id="Group_682" data-name="Group 682" transform="translate(12.696 -24.358)">
      <path id="Path_877" data-name="Path 877" d="M0,0H0Z" transform="translate(0 0.001)" fill="#fff"/>
    </g>
    <g id="Group_686" data-name="Group 686" transform="translate(0 -39.685)" clip-path="url(#clip-path)">
      <g id="Group_683" data-name="Group 683" transform="translate(12.989 13.315)">
        <path id="Path_878" data-name="Path 878" d="M0,0H0Z" transform="translate(0.003)" fill="#fff"/>
      </g>
      <g id="Group_684" data-name="Group 684" transform="translate(8.593 8.504)">
        <path id="Path_879" data-name="Path 879" d="M0,.041V.029A5.116,5.116,0,0,0,1.519,3.644,5.165,5.165,0,0,0,5.153,5.151h.011A5.157,5.157,0,0,0,8.8,3.631,5.131,5.131,0,0,0,10.328,0V0h0A5.154,5.154,0,0,0,8.82-3.666a5.161,5.161,0,0,0-3.665-1.5H5.141a5.127,5.127,0,0,0-3.655,1.5A5.171,5.171,0,0,0,0,.01V.03ZM2.007-3.146A4.4,4.4,0,0,1,5.144-4.433h.012A4.429,4.429,0,0,1,8.3-3.146,4.417,4.417,0,0,1,9.594,0V0a4.391,4.391,0,0,1-1.309,3.11A4.422,4.422,0,0,1,5.164,4.417h-.01A4.423,4.423,0,0,1,2.037,3.123a4.374,4.374,0,0,1-1.3-3.1h0V.01A4.442,4.442,0,0,1,2.007-3.146" transform="translate(0 5.167)" fill="#fff"/>
      </g>
      <g id="Group_685" data-name="Group 685" transform="translate(10.884 10.782)">
        <path id="Path_880" data-name="Path 880" d="M0,.026A.99.99,0,0,0,.4.478,1.267,1.267,0,0,0,1,.658c.141.008.28.01.419.01q.156,0,.311,0c0,.09,0,.178,0,.264,0,.125,0,.248,0,.372a1.6,1.6,0,0,0,.062.439,1.138,1.138,0,0,0,.133.291.916.916,0,0,0,.358.319,1.1,1.1,0,0,0,.466.11h.035a1.1,1.1,0,0,0,.423-.079.936.936,0,0,0,.274-.171,1.019,1.019,0,0,0,.266-.4,1.575,1.575,0,0,0,.094-.495c0-.126.006-.251.006-.376,0-.089,0-.178,0-.269h.406A3.655,3.655,0,0,0,4.638.652,1.382,1.382,0,0,0,5.027.558.963.963,0,0,0,5.477.19,1.031,1.031,0,0,0,5.63-.369c0-.02,0-.04,0-.059v0a1.008,1.008,0,0,0-.336-.715,1.151,1.151,0,0,0-.749-.28c-.136,0-.271,0-.407,0H3.849c0-.1,0-.208,0-.309,0-.135,0-.268-.009-.4a1.22,1.22,0,0,0-.3-.776.991.991,0,0,0-.335-.24A1.027,1.027,0,0,0,2.8-3.245h-.01a1.058,1.058,0,0,0-.422.086,1,1,0,0,0-.466.424,1.316,1.316,0,0,0-.164.632c0,.129,0,.258,0,.384,0,.1,0,.188,0,.278-.225,0-.449.008-.676.014a1.234,1.234,0,0,0-.776.28.99.99,0,0,0-.254.322.986.986,0,0,0-.1.408c0,.012,0,.026,0,.04A1.01,1.01,0,0,0,0,.026M.654-.389h0A.262.262,0,0,1,.68-.5.316.316,0,0,1,.809-.626a.545.545,0,0,1,.263-.067C1.387-.7,1.7-.7,2.025-.712a.373.373,0,0,0,.141-.029.406.406,0,0,0,.11-.07c.024-.022.03-.029.038-.037l.032-.03.12-.109v-.162c0-.179,0-.373,0-.569,0-.122,0-.245,0-.368a.511.511,0,0,1,.1-.336.227.227,0,0,1,.086-.064.3.3,0,0,1,.128-.024h0a.279.279,0,0,1,.12.024.274.274,0,0,1,.128.116.547.547,0,0,1,.073.264c.005.118.007.24.007.368,0,.206-.005.427-.005.677v.368H3.48c.229,0,.447,0,.656,0,.132,0,.262,0,.391,0A.414.414,0,0,1,4.8-.6.27.27,0,0,1,4.9-.4v.028a.353.353,0,0,1-.019.127A.179.179,0,0,1,4.8-.148a.528.528,0,0,1-.235.069,2.97,2.97,0,0,1-.31.012H3.112V.3c0,.232,0,.44,0,.637,0,.12,0,.235-.005.348a.882.882,0,0,1-.039.243.28.28,0,0,1-.1.152.308.308,0,0,1-.186.046H2.77A.4.4,0,0,1,2.625,1.7a.181.181,0,0,1-.054-.035.268.268,0,0,1-.066-.112.871.871,0,0,1-.039-.265h0c0-.117,0-.236,0-.358,0-.2,0-.405,0-.634V-.072H2.1c-.245,0-.469.006-.679.006-.131,0-.256,0-.378-.009A.483.483,0,0,1,.733-.183.239.239,0,0,1,.675-.266.271.271,0,0,1,.653-.376Z" transform="translate(0.081 3.245)" fill="#fff"/>
      </g>
    </g>
  </g>
</svg>
