<svg xmlns="http://www.w3.org/2000/svg" width="60.802" height="75.998" viewBox="0 0 60.802 75.998">
  <g id="innovation" transform="translate(-51.192)">
    <g id="Group_783" data-name="Group 783" transform="translate(65.368 14.176)">
      <g id="Group_782" data-name="Group 782">
        <path id="Path_986" data-name="Path 986" d="M177.569,108.168H174.2a11.729,11.729,0,0,0-.784-1.893l2.384-2.384a1.578,1.578,0,0,0,0-2.231l-2.806-2.806a1.58,1.58,0,0,0-2.231,0l-2.384,2.384a11.721,11.721,0,0,0-1.893-.784V97.083a1.58,1.58,0,0,0-1.578-1.578h-3.968a1.579,1.579,0,0,0-1.578,1.578v3.372a11.736,11.736,0,0,0-1.893.784l-2.384-2.384a1.58,1.58,0,0,0-2.231,0l-2.805,2.805a1.577,1.577,0,0,0,0,2.231l2.384,2.384a11.72,11.72,0,0,0-.784,1.893h-3.372a1.579,1.579,0,0,0-1.578,1.578v3.968a1.579,1.579,0,0,0,1.578,1.578h3.372a11.728,11.728,0,0,0,.784,1.893l-2.384,2.384a1.579,1.579,0,0,0,0,2.231l2.806,2.806a1.579,1.579,0,0,0,2.231,0l2.384-2.384a11.721,11.721,0,0,0,1.893.784v3.372a1.579,1.579,0,0,0,1.578,1.578h3.968a1.58,1.58,0,0,0,1.578-1.578V123a11.727,11.727,0,0,0,1.893-.784l2.384,2.384a1.58,1.58,0,0,0,2.231,0L175.8,121.8a1.578,1.578,0,0,0,0-2.231l-2.384-2.384a11.718,11.718,0,0,0,.784-1.893h3.372a1.58,1.58,0,0,0,1.578-1.578v-3.968A1.579,1.579,0,0,0,177.569,108.168Zm-.649,4.9h-3.571a1.113,1.113,0,0,0-1.084.86,9.519,9.519,0,0,1-1.184,2.86,1.114,1.114,0,0,0,.158,1.375l2.525,2.525-1.888,1.888-2.525-2.525a1.113,1.113,0,0,0-1.375-.159,9.527,9.527,0,0,1-2.86,1.184,1.113,1.113,0,0,0-.86,1.084v3.571h-2.67v-3.571a1.113,1.113,0,0,0-.86-1.084,9.514,9.514,0,0,1-2.86-1.184,1.114,1.114,0,0,0-1.375.159l-2.525,2.525-1.888-1.888,2.525-2.525a1.113,1.113,0,0,0,.159-1.375,9.522,9.522,0,0,1-1.184-2.86,1.113,1.113,0,0,0-1.084-.86h-3.571v-2.67H152.5a1.113,1.113,0,0,0,1.084-.86,9.522,9.522,0,0,1,1.184-2.86,1.114,1.114,0,0,0-.159-1.375l-2.525-2.525,1.888-1.888,2.525,2.525a1.113,1.113,0,0,0,1.375.159,9.519,9.519,0,0,1,2.86-1.184,1.113,1.113,0,0,0,.86-1.084V97.732h2.67V101.3a1.113,1.113,0,0,0,.86,1.084,9.524,9.524,0,0,1,2.86,1.184,1.114,1.114,0,0,0,1.375-.159l2.525-2.525,1.888,1.888-2.525,2.525a1.113,1.113,0,0,0-.158,1.375,9.524,9.524,0,0,1,1.184,2.86,1.113,1.113,0,0,0,1.084.86h3.571Z" transform="translate(-146.697 -95.505)" fill="#6dbbd4"/>
      </g>
    </g>
    <g id="Group_785" data-name="Group 785" transform="translate(75.629 24.437)">
      <g id="Group_784" data-name="Group 784" transform="translate(0)">
        <path id="Path_987" data-name="Path 987" d="M221.784,164.628a5.964,5.964,0,1,0,5.964,5.964A5.971,5.971,0,0,0,221.784,164.628Zm0,9.7a3.738,3.738,0,1,1,3.738-3.738A3.742,3.742,0,0,1,221.784,174.33Z" transform="translate(-215.82 -164.628)" fill="#6dbbd4"/>
      </g>
    </g>
    <g id="Group_787" data-name="Group 787" transform="translate(51.192 29.288)">
      <g id="Group_786" data-name="Group 786" transform="translate(0)">
        <path id="Path_988" data-name="Path 988" d="M56,197.308H52.305a1.113,1.113,0,0,0,0,2.227H56a1.113,1.113,0,0,0,0-2.227Z" transform="translate(-51.192 -197.308)" fill="#6dbbd4"/>
      </g>
    </g>
    <g id="Group_789" data-name="Group 789" transform="translate(106.074 29.288)">
      <g id="Group_788" data-name="Group 788">
        <path id="Path_989" data-name="Path 989" d="M425.734,197.308H422.04a1.113,1.113,0,0,0,0,2.227h3.693a1.113,1.113,0,0,0,0-2.227Z" transform="translate(-420.927 -197.308)" fill="#6dbbd4"/>
      </g>
    </g>
    <g id="Group_791" data-name="Group 791" transform="translate(59.77 47.386)">
      <g id="Group_790" data-name="Group 790" transform="translate(0)">
        <path id="Path_990" data-name="Path 990" d="M113.493,319.558a1.113,1.113,0,0,0-1.574,0l-2.612,2.612a1.113,1.113,0,0,0,1.574,1.574l2.612-2.612A1.113,1.113,0,0,0,113.493,319.558Z" transform="translate(-108.981 -319.232)" fill="#6dbbd4"/>
      </g>
    </g>
    <g id="Group_793" data-name="Group 793" transform="translate(98.578 8.578)">
      <g id="Group_792" data-name="Group 792" transform="translate(0)">
        <path id="Path_991" data-name="Path 991" d="M374.936,58.117a1.114,1.114,0,0,0-1.575,0l-2.612,2.612a1.113,1.113,0,0,0,1.575,1.574l2.612-2.612A1.113,1.113,0,0,0,374.936,58.117Z" transform="translate(-370.423 -57.791)" fill="#6dbbd4"/>
      </g>
    </g>
    <g id="Group_795" data-name="Group 795" transform="translate(80.48)">
      <g id="Group_794" data-name="Group 794" transform="translate(0)">
        <path id="Path_992" data-name="Path 992" d="M249.614,0A1.113,1.113,0,0,0,248.5,1.113V4.807a1.113,1.113,0,0,0,2.227,0V1.113A1.113,1.113,0,0,0,249.614,0Z" transform="translate(-248.501)" fill="#6dbbd4"/>
      </g>
    </g>
    <g id="Group_797" data-name="Group 797" transform="translate(98.578 47.386)">
      <g id="Group_796" data-name="Group 796" transform="translate(0)">
        <path id="Path_993" data-name="Path 993" d="M374.936,322.17l-2.612-2.612a1.113,1.113,0,0,0-1.575,1.574l2.612,2.612a1.113,1.113,0,0,0,1.575-1.574Z" transform="translate(-370.423 -319.232)" fill="#6dbbd4"/>
      </g>
    </g>
    <g id="Group_799" data-name="Group 799" transform="translate(59.77 8.578)">
      <g id="Group_798" data-name="Group 798" transform="translate(0)">
        <path id="Path_994" data-name="Path 994" d="M113.493,60.729l-2.612-2.612a1.113,1.113,0,0,0-1.574,1.574l2.612,2.612a1.113,1.113,0,1,0,1.574-1.574Z" transform="translate(-108.981 -57.791)" fill="#6dbbd4"/>
      </g>
    </g>
    <g id="Group_801" data-name="Group 801" transform="translate(83.077 8.097)">
      <g id="Group_800" data-name="Group 800">
        <path id="Path_995" data-name="Path 995" d="M286.725,74.123a22.39,22.39,0,0,0-19.478-19.569,1.113,1.113,0,1,0-.27,2.21,20.052,20.052,0,0,1,17.536,17.618,1.113,1.113,0,0,0,1.1.984,1.152,1.152,0,0,0,.131-.008A1.113,1.113,0,0,0,286.725,74.123Z" transform="translate(-265.999 -54.545)" fill="#6dbbd4"/>
      </g>
    </g>
    <g id="Group_803" data-name="Group 803" transform="translate(59.228 8.098)">
      <g id="Group_802" data-name="Group 802" transform="translate(0)">
        <path id="Path_996" data-name="Path 996" d="M148.914,78.352a1.112,1.112,0,0,0-1.244.965,20.062,20.062,0,0,1-9.284,14.513,7.49,7.49,0,0,0-3.539,6.37v4.582H120.54V100.1a7.331,7.331,0,0,0-3.43-6.2,20.14,20.14,0,0,1,8.122-37.123,1.113,1.113,0,1,0-.274-2.21,22.365,22.365,0,0,0-9.021,41.226,5.089,5.089,0,0,1,2.375,4.308v4.845a2.9,2.9,0,0,0-1.948,2.733v1.587a2.878,2.878,0,0,0,.618,1.781,2.877,2.877,0,0,0-.618,1.781v1.587a2.9,2.9,0,0,0,2.895,2.895h3.5v2.517a2.636,2.636,0,0,0,2.633,2.633h4.6a2.636,2.636,0,0,0,2.633-2.633v-2.517h3.5a2.9,2.9,0,0,0,2.895-2.895v-1.587a2.877,2.877,0,0,0-.618-1.781,2.877,2.877,0,0,0,.618-1.781v-1.587a2.9,2.9,0,0,0-1.948-2.733V100.2a5.275,5.275,0,0,1,2.5-4.485A22.28,22.28,0,0,0,149.878,79.6,1.112,1.112,0,0,0,148.914,78.352ZM130.4,119.825a.412.412,0,0,1-.406.406h-4.6a.412.412,0,0,1-.406-.406v-2.517H130.4Zm6.395-5.411a.677.677,0,0,1-.668.668H119.26a.677.677,0,0,1-.668-.668v-1.587a.677.677,0,0,1,.668-.668h16.867a.677.677,0,0,1,.668.668Zm0-5.15a.677.677,0,0,1-.668.668H119.26a.677.677,0,0,1-.668-.668v-1.587a.677.677,0,0,1,.668-.668h16.867a.677.677,0,0,1,.668.668Z" transform="translate(-105.328 -54.556)" fill="#6dbbd4"/>
      </g>
    </g>
  </g>
</svg>
