<svg xmlns="http://www.w3.org/2000/svg" xmlns:xlink="http://www.w3.org/1999/xlink" width="40" height="40.56" viewBox="0 0 40 40.56">
  <defs>
    <clipPath id="clip-path">
      <path id="Path_931" data-name="Path 931" d="M0,9.842H40v-40.56H0Z" transform="translate(0 30.718)" fill="none"/>
    </clipPath>
  </defs>
  <g id="Group_741" data-name="Group 741" transform="translate(0 30.718)">
    <g id="Group_740" data-name="Group 740" transform="translate(0 -30.718)" clip-path="url(#clip-path)">
      <g id="Group_731" data-name="Group 731" transform="translate(0 0)">
        <path id="Path_922" data-name="Path 922" d="M9.706,4.921a20.141,20.141,0,0,1-20,20.28,20.141,20.141,0,0,1-20-20.28,20.141,20.141,0,0,1,20-20.28,20.141,20.141,0,0,1,20,20.28" transform="translate(30.294 15.359)" fill="#fff"/>
      </g>
      <g id="Group_732" data-name="Group 732" transform="translate(6.85 25.846)">
        <path id="Path_923" data-name="Path 923" d="M3.187,1.887c-3.069,0-6.139.007-9.208,0a3.873,3.873,0,0,1-3.87-3.2A3.912,3.912,0,0,1-5.926-5.891C.037-5.858,6-5.882,11.96-5.879a8.531,8.531,0,0,1,.972.04,3.626,3.626,0,0,1,3.075,2.3A3.729,3.729,0,0,1,15.591.278a3.752,3.752,0,0,1-3.24,1.608q-4.581.006-9.164,0m.028-6.656q-1.462,0-2.922,0c-2.184,0-4.369-.015-6.553.013A2.672,2.672,0,0,0-8.814-2.4a2.756,2.756,0,0,0,2.9,3.2q9.1.032,18.2,0A2.723,2.723,0,0,0,14.848-.594a2.748,2.748,0,0,0-2.379-4.171c-3.084-.018-6.169,0-9.253,0" transform="translate(9.949 5.891)" fill="#2972bd"/>
      </g>
      <g id="Group_733" data-name="Group 733" transform="translate(12.493 6.932)">
        <path id="Path_924" data-name="Path 924" d="M1.676.961V-1.86c-.79,0-1.554,0-2.319,0-.648,0-.937-.186-.924-.58.012-.371.3-.541.908-.541H5.229c.119,0,.272-.045.347.015.194.148.449.317.5.524a.447.447,0,0,1-.452.544c-.44.032-.883.033-1.324.038-.47.005-.94,0-1.441,0V.988q1.129.17,2.259.343c.947.147,1.9.265,2.836.452A2.28,2.28,0,0,1,9.721,4.551Q9.172,6.9,8.555,9.237a.942.942,0,0,1-.49.537c-.125.053-.415-.118-.528-.268a.758.758,0,0,1-.021-.544c.364-1.507.747-3.008,1.118-4.513A1.187,1.187,0,0,0,7.626,2.842c-1.7-.279-3.4-.585-5.11-.765a9.215,9.215,0,0,0-2.187.239c-1.151.164-2.3.327-3.449.528A1.191,1.191,0,0,0-4.1,4.436q.525,2.151,1.056,4.3c.018.071.034.144.05.217.092.429-.055.758-.395.805-.4.058-.582-.2-.669-.557-.2-.84-.415-1.678-.621-2.518q-.228-.933-.454-1.868a2.373,2.373,0,0,1,2.094-3.12c1.472-.207,2.943-.43,4.415-.65a2.425,2.425,0,0,0,.3-.083" transform="translate(5.231 2.998)" fill="#2972bd"/>
      </g>
      <g id="Group_734" data-name="Group 734" transform="translate(15.064 14.177)">
        <path id="Path_925" data-name="Path 925" d="M0,1.216Q0-.893,0-3c0-.636.153-.791.787-.791q4.137,0,8.275,0c.635,0,.787.154.788.79q0,4.219,0,8.439c0,.6-.173.774-.766.774q-4.159,0-8.318,0C.175,6.208,0,6.034,0,5.435,0,4.028,0,2.622,0,1.216M8.735-2.649H1.111V5.068H8.735Zm0,7.716" transform="translate(0.001 3.795)" fill="#2972bd"/>
      </g>
      <g id="Group_735" data-name="Group 735" transform="translate(9.587 28.069)">
        <path id="Path_926" data-name="Path 926" d="M.4.806A1.634,1.634,0,0,1-1.246-.862,1.665,1.665,0,0,1,.382-2.515,1.666,1.666,0,0,1,2.027-.879,1.634,1.634,0,0,1,.4.806M.42-1.386a.526.526,0,0,0-.572.51A.556.556,0,0,0,.4-.3.524.524,0,0,0,.926-.845.5.5,0,0,0,.42-1.386" transform="translate(1.246 2.515)" fill="#2972bd"/>
      </g>
      <g id="Group_736" data-name="Group 736" transform="translate(18.354 28.068)">
        <path id="Path_927" data-name="Path 927" d="M.394.806A1.631,1.631,0,0,1-1.229-.839,1.669,1.669,0,0,1,.423-2.515,1.667,1.667,0,0,1,2.044-.857,1.633,1.633,0,0,1,.394.806M.955-.858a.536.536,0,0,0-.537-.528A.517.517,0,0,0-.134-.87.556.556,0,0,0,.42-.3C.749-.323.9-.54.955-.858" transform="translate(1.229 2.515)" fill="#2972bd"/>
      </g>
      <g id="Group_737" data-name="Group 737" transform="translate(27.122 28.067)">
        <path id="Path_928" data-name="Path 928" d="M.4.806A1.632,1.632,0,0,1-1.238-.827,1.668,1.668,0,0,1,.4-2.516,1.668,1.668,0,0,1,2.035-.869,1.634,1.634,0,0,1,.4.806M.386-1.387a.5.5,0,0,0-.522.545A.522.522,0,0,0,.4-.3a.557.557,0,0,0,.545-.58.524.524,0,0,0-.555-.508" transform="translate(1.238 2.516)" fill="#2972bd"/>
      </g>
      <g id="Group_738" data-name="Group 738" transform="translate(13.972 28.069)">
        <path id="Path_929" data-name="Path 929" d="M.4.806A1.636,1.636,0,0,1-1.246-.828,1.655,1.655,0,0,1,.4-2.515,1.658,1.658,0,0,1,2.026-.847,1.641,1.641,0,0,1,.4.806M.93-.85a.517.517,0,0,0-.518-.531.5.5,0,0,0-.555.5A.527.527,0,0,0,.387-.3.539.539,0,0,0,.93-.85" transform="translate(1.246 2.515)" fill="#2972bd"/>
      </g>
      <g id="Group_739" data-name="Group 739" transform="translate(22.738 28.069)">
        <path id="Path_930" data-name="Path 930" d="M.394.806A1.64,1.64,0,0,1-1.229-.851,1.653,1.653,0,0,1,.4-2.515,1.657,1.657,0,0,1,2.043-.824,1.639,1.639,0,0,1,.394.806M.4-1.39a.517.517,0,0,0-.524.541A.511.511,0,0,0,.394-.3.527.527,0,0,0,.94-.864.526.526,0,0,0,.4-1.39" transform="translate(1.229 2.515)" fill="#2972bd"/>
      </g>
    </g>
  </g>
</svg>
