<svg xmlns="http://www.w3.org/2000/svg" xmlns:xlink="http://www.w3.org/1999/xlink" width="32.713" height="26.26" viewBox="0 0 32.713 26.26">
  <defs>
    <clipPath id="clip-path">
      <path id="Path_950" data-name="Path 950" d="M0-9.432H32.713v-26.26H0Z" transform="translate(0 35.692)" fill="none"/>
    </clipPath>
  </defs>
  <g id="Group_764" data-name="Group 764" transform="translate(0 35.692)">
    <g id="Group_763" data-name="Group 763" transform="translate(0 -35.692)" clip-path="url(#clip-path)">
      <g id="Group_759" data-name="Group 759" transform="translate(0 1.301)">
        <path id="Path_946" data-name="Path 946" d="M-8.789-3.847a12.525,12.525,0,0,0-.945-3.38l-.687.4-.686.4q.156.372.285.756A10.974,10.974,0,0,1-10.634.693,11.021,11.021,0,0,1-12.543,4.57,10.9,10.9,0,0,1-17.529,8.2a10.514,10.514,0,0,1-6.26.249,10.509,10.509,0,0,1-3.8-1.9,10.786,10.786,0,0,1-3.526-5.031A10.974,10.974,0,0,1-31.3-4.846,11.021,11.021,0,0,1-29.4-8.723a10.9,10.9,0,0,1,4.986-3.626,10.512,10.512,0,0,1,6.259-.248,10.493,10.493,0,0,1,3.8,1.9,10.641,10.641,0,0,1,1.928,1.982l.689-.406.686-.4c-.194-.269-.4-.531-.614-.784a12.07,12.07,0,0,0-6.076-3.838A12.065,12.065,0,0,0-22.6-14.43a12.365,12.365,0,0,0-6.385,2.974,12.588,12.588,0,0,0-3.832,6.2,12.647,12.647,0,0,0-.327,4.946,12.484,12.484,0,0,0,2.872,6.459A12.07,12.07,0,0,0-24.2,9.99a12.051,12.051,0,0,0,4.868.288A12.364,12.364,0,0,0-12.948,7.3,12.6,12.6,0,0,0-9.116,1.1a12.646,12.646,0,0,0,.327-4.946" transform="translate(33.258 14.556)" fill="#2972bd"/>
      </g>
      <g id="Group_760" data-name="Group 760" transform="translate(2.807 4.306)">
        <path id="Path_947" data-name="Path 947" d="M-4.208-.112A9.1,9.1,0,0,0-7.882-.329,9.328,9.328,0,0,0-12.7,1.915,9.509,9.509,0,0,0-15.594,6.6a9.561,9.561,0,0,0-.246,3.733A9.427,9.427,0,0,0-13.673,15.2a9.1,9.1,0,0,0,4.585,2.9,9.1,9.1,0,0,0,3.674.217A9.328,9.328,0,0,0-.595,16.073,9.509,9.509,0,0,0,2.3,11.391a9.547,9.547,0,0,0,.246-3.733,9.456,9.456,0,0,0-.537-2.117l-.692.408-.692.408c.007.021.015.04.021.06A7.89,7.89,0,0,1,.78,10.984,7.935,7.935,0,0,1-.592,13.771a7.834,7.834,0,0,1-3.584,2.605,7.554,7.554,0,0,1-4.5.179,7.552,7.552,0,0,1-2.732-1.368,7.756,7.756,0,0,1-2.535-3.616A7.884,7.884,0,0,1-14.075,7,7.933,7.933,0,0,1-12.7,4.217,7.841,7.841,0,0,1-9.12,1.611a7.56,7.56,0,0,1,4.5-.178A7.552,7.552,0,0,1-1.89,2.8,7.63,7.63,0,0,1-.649,4.04l.692-.408.689-.405Q.561,3,.378,2.784a9.108,9.108,0,0,0-4.586-2.9" transform="translate(15.923 0.424)" fill="#2972bd"/>
      </g>
      <g id="Group_761" data-name="Group 761" transform="translate(6.208 7.76)">
        <path id="Path_948" data-name="Path 948" d="M-1.614-.662A4.222,4.222,0,0,1,.9-.761,4.211,4.211,0,0,1,2.423,0a4.22,4.22,0,0,1,.321.285l.709-.419.7-.412A5.766,5.766,0,0,0,1.311-2.306a5.753,5.753,0,0,0-2.327-.138A5.908,5.908,0,0,0-4.067-1.023,6.02,6.02,0,0,0-5.9,1.943a6.062,6.062,0,0,0-.156,2.365A5.966,5.966,0,0,0-4.684,7.394a5.773,5.773,0,0,0,2.9,1.834,5.753,5.753,0,0,0,2.327.138A5.91,5.91,0,0,0,3.6,7.945,6.027,6.027,0,0,0,5.432,4.979a6.048,6.048,0,0,0,.156-2.365,5.981,5.981,0,0,0-.172-.835L4.708,2.2l-.715.422a4.421,4.421,0,0,1-.079,1.954,4.443,4.443,0,0,1-.766,1.556,4.379,4.379,0,0,1-2,1.455,4.222,4.222,0,0,1-2.512.1,4.213,4.213,0,0,1-1.525-.764A4.329,4.329,0,0,1-4.306,4.9,4.4,4.4,0,0,1-4.381,2.35,4.418,4.418,0,0,1-3.615.794a4.373,4.373,0,0,1,2-1.455" transform="translate(6.108 2.504)" fill="#2972bd"/>
      </g>
      <g id="Group_762" data-name="Group 762" transform="translate(12.001 0)">
        <path id="Path_949" data-name="Path 949" d="M-7.176-1.618-10.1-2.4l1-3.722L-13.551-3.5-15.435-.056-26.811,6.762a.7.7,0,0,0-.254.947.673.673,0,0,0,.931.249l11.376-6.818,3.867.059,4.448-2.621Z" transform="translate(27.155 6.124)" fill="#2972bd"/>
      </g>
    </g>
  </g>
</svg>
