<svg xmlns="http://www.w3.org/2000/svg" xmlns:xlink="http://www.w3.org/1999/xlink" width="33.941" height="26.261" viewBox="0 0 33.941 26.261">
  <defs>
    <clipPath id="clip-path">
      <path id="Path_954" data-name="Path 954" d="M0-7.584H33.941V-33.845H0Z" transform="translate(0 33.845)" fill="none"/>
    </clipPath>
  </defs>
  <g id="Group_769" data-name="Group 769" transform="translate(0 33.845)">
    <g id="Group_768" data-name="Group 768" transform="translate(0 -33.845)" clip-path="url(#clip-path)">
      <g id="Group_765" data-name="Group 765" transform="translate(17.633 7.791)">
        <path id="Path_951" data-name="Path 951" d="M-4.463-.019a1.446,1.446,0,0,0-1.806.86s-2.3,4.749-2.571,5.58A1.4,1.4,0,0,1-9.7,7.4S-12.6,8.884-13.337,9.27s-.49.089-.49.089l2.02-1.84s1.515-1.5.52-2.464-2.2.3-2.2.3-1.56,1.365-3.611,3.086-1.958,2.908-1.958,2.908l-.857,4.126a2.57,2.57,0,0,0,2.173,2.851,2.975,2.975,0,0,0,3.274-1.843,3.774,3.774,0,0,1,1.439-1.662s4.375-3.146,5.905-4.1A3.688,3.688,0,0,0-5.442,8.142L-3.79,2.325s.7-1.988-.673-2.344" transform="translate(19.917 0.084)" fill="#2972bd"/>
      </g>
      <g id="Group_766" data-name="Group 766" transform="translate(0 7.791)">
        <path id="Path_952" data-name="Path 952" d="M-3.9-2.461C-5.947-4.182-7.507-5.548-7.507-5.548s-1.209-1.261-2.2-.3.52,2.463.52,2.463l2.02,1.84s.245.3-.49-.089S-11.3-3.5-11.3-3.5a1.4,1.4,0,0,1-.857-.979c-.275-.831-2.571-5.579-2.571-5.579a1.446,1.446,0,0,0-1.806-.86c-1.377.356-.673,2.344-.673,2.344l1.653,5.817A3.688,3.688,0,0,0-13.872-.176c1.53.95,5.906,4.1,5.906,4.1A3.769,3.769,0,0,1-6.528,5.581,2.975,2.975,0,0,0-3.254,7.424,2.571,2.571,0,0,0-1.081,4.571L-1.938.447S-1.846-.74-3.9-2.461" transform="translate(17.388 10.984)" fill="#2972bd"/>
      </g>
      <g id="Group_767" data-name="Group 767" transform="translate(8.075 0)">
        <path id="Path_953" data-name="Path 953" d="M-4.684-2.568A5.126,5.126,0,0,0-3.11-6.255,5.115,5.115,0,0,0-4.684-9.935l-.306-.3h-.033A5.462,5.462,0,0,0-8.482-11.46a5.449,5.449,0,0,0-3.524,1.286,5.453,5.453,0,0,0-3.525-1.286,5.445,5.445,0,0,0-3.8,1.525A5.117,5.117,0,0,0-20.9-6.251a5.1,5.1,0,0,0,1.317,3.409l-.024.023,7.592,7.362,5.566-5.4Zm-7.333,4.242-4.641-4.5.01-.01L-17.85-4a3.119,3.119,0,0,1-.961-2.249A3.116,3.116,0,0,1-17.85-8.5a3.318,3.318,0,0,1,2.318-.932,3.321,3.321,0,0,1,2.318.931l1.207,1.17L-10.8-8.5a3.321,3.321,0,0,1,2.318-.931A3.321,3.321,0,0,1-6.164-8.5l0,0A3.113,3.113,0,0,1-5.2-6.255,3.124,3.124,0,0,1-6.164-4L-7.931-2.289Z" transform="translate(20.902 11.46)" fill="#2972bd"/>
      </g>
    </g>
  </g>
</svg>
