<svg id="production" xmlns="http://www.w3.org/2000/svg" width="76" height="76" viewBox="0 0 76 76">
  <path id="Path_982" data-name="Path 982" d="M75.3,31.4l-6.332-2.533a32.169,32.169,0,0,0-2.616-6.3l2.69-6.278a1.113,1.113,0,0,0-.236-1.226L60.934,7.194a1.113,1.113,0,0,0-1.226-.236l-6.278,2.69a32.169,32.169,0,0,0-6.3-2.616L44.6.7A1.114,1.114,0,0,0,43.566,0H32.434A1.114,1.114,0,0,0,31.4.7L28.867,7.032a32.149,32.149,0,0,0-6.3,2.616l-6.278-2.69a1.114,1.114,0,0,0-1.226.236L7.194,15.066a1.114,1.114,0,0,0-.236,1.226l2.69,6.277a32.184,32.184,0,0,0-2.616,6.3L.7,31.4A1.114,1.114,0,0,0,0,32.434V43.566A1.114,1.114,0,0,0,.7,44.6l6.332,2.533a32.113,32.113,0,0,0,2.616,6.3l-2.69,6.278a1.113,1.113,0,0,0,.236,1.226l7.872,7.872a1.113,1.113,0,0,0,1.226.236l6.278-2.69a32.134,32.134,0,0,0,6.3,2.616L31.4,75.3a1.114,1.114,0,0,0,1.034.7H43.566a1.112,1.112,0,0,0,1.033-.7l2.533-6.332a32.149,32.149,0,0,0,6.3-2.616l6.277,2.69a1.114,1.114,0,0,0,1.226-.236l7.872-7.872a1.114,1.114,0,0,0,.236-1.226l-2.69-6.278a32.169,32.169,0,0,0,2.616-6.3L75.3,44.6a1.114,1.114,0,0,0,.7-1.034V32.434A1.114,1.114,0,0,0,75.3,31.4ZM73.773,42.813l-6.139,2.456a1.114,1.114,0,0,0-.66.737,29.9,29.9,0,0,1-2.829,6.811,1.113,1.113,0,0,0-.056.989L66.7,59.892,59.892,66.7,53.805,64.09a1.115,1.115,0,0,0-.989.056,29.912,29.912,0,0,1-6.811,2.829,1.114,1.114,0,0,0-.737.66l-2.456,6.139H33.187l-2.456-6.139a1.112,1.112,0,0,0-.736-.66,29.9,29.9,0,0,1-6.811-2.829,1.115,1.115,0,0,0-.989-.056L16.107,66.7,9.3,59.892l2.609-6.087a1.111,1.111,0,0,0-.056-.989,29.938,29.938,0,0,1-2.829-6.811,1.115,1.115,0,0,0-.659-.737L2.227,42.813V33.187l6.139-2.456a1.112,1.112,0,0,0,.66-.736,29.9,29.9,0,0,1,2.829-6.81,1.113,1.113,0,0,0,.056-.989L9.3,16.107,16.107,9.3,22.2,11.91a1.113,1.113,0,0,0,.989-.056,29.9,29.9,0,0,1,6.81-2.829,1.112,1.112,0,0,0,.736-.66l2.456-6.139h9.625l2.456,6.139a1.112,1.112,0,0,0,.736.66,29.9,29.9,0,0,1,6.81,2.829,1.113,1.113,0,0,0,.989.056L59.893,9.3,66.7,16.107,64.09,22.2a1.113,1.113,0,0,0,.056.989,29.886,29.886,0,0,1,2.829,6.81,1.112,1.112,0,0,0,.66.736l6.139,2.456Zm0,0" fill="#6dbbd4"/>
  <path id="Path_983" data-name="Path 983" d="M115.492,91a24.492,24.492,0,1,0,24.492,24.492A24.52,24.52,0,0,0,115.492,91Zm0,46.758a22.266,22.266,0,1,1,22.266-22.266A22.291,22.291,0,0,1,115.492,137.758Zm0,0" transform="translate(-77.492 -77.492)" fill="#6dbbd4"/>
  <path id="Path_984" data-name="Path 984" d="M141.039,121a19.831,19.831,0,0,0-12.4,4.3,1.113,1.113,0,1,0,1.379,1.748,17.624,17.624,0,0,1,11.026-3.822,17.813,17.813,0,1,1-17.812,17.813,17.624,17.624,0,0,1,3.822-11.026,1.113,1.113,0,0,0-1.748-1.379,19.834,19.834,0,0,0-4.3,12.4A20.039,20.039,0,1,0,141.039,121Zm0,0" transform="translate(-103.039 -103.039)" fill="#6dbbd4"/>
  <path id="Path_985" data-name="Path 985" d="M164.619,174.786l12.534,7.236a1.114,1.114,0,0,0,1.113,0l12.534-7.236a1.114,1.114,0,0,0,.557-.964V159.349a1.114,1.114,0,0,0-.557-.964l-12.534-7.236a1.113,1.113,0,0,0-1.113,0l-12.534,7.236a1.114,1.114,0,0,0-.557.964v14.473A1.114,1.114,0,0,0,164.619,174.786Zm1.67-13.509,10.307,5.951v11.9l-10.307-5.951Zm12.534,17.853v-11.9l10.307-5.951v11.9ZM177.709,153.4l10.307,5.951L177.709,165.3,167.4,159.349Zm0,0" transform="translate(-139.709 -128.585)" fill="#6dbbd4"/>
</svg>
