<svg xmlns="http://www.w3.org/2000/svg"
  xmlns:xlink="http://www.w3.org/1999/xlink" viewBox="0 0 40 40">
  <defs>
    <clipPath id="clip-path">
      <path id="Path_889" data-name="Path 889" d="M0,.315H40v-40H0Z" transform="translate(0 39.685)" fill="none"/>
    </clipPath>
  </defs>
  <g id="Group_676" data-name="Group 676" transform="translate(0 39.685)">
    <g id="Group_695" data-name="Group 695" transform="translate(0 -39.685)" clip-path="url(#clip-path)">
      <g id="Group_688" data-name="Group 688" transform="translate(0 0)">
        <path id="Path_882" data-name="Path 882" d="M.315.158a20,20,0,0,1-20,20,20,20,0,0,1-20-20,20,20,0,0,1,20-20,20,20,0,0,1,20,20" transform="translate(39.685 19.843)" fill="#2972bd"/>
      </g>
      <g id="Group_689" data-name="Group 689" transform="translate(12.902 8.53)">
        <path id="Path_883" data-name="Path 883" d="M.145.009C.465.009.725.064.725.13V.586C.725.653.5.709.223.709-.157.728-1.257.724-2.234.7c-.284-.143-.51.071-.5.477.022.981.023,2.985,0,4.476-.084.262.132.47.481.464C-1.278,6.1-.3,6.111.207,6.111c.281,0,.508.053.508.12v.448c0,.068-.258.122-.578.122-.437.019-1.713.015-2.849-.008a.938.938,0,0,1-.72-.619,1.217,1.217,0,0,0-.344-.264,1.9,1.9,0,0,0-.26-.006,6.222,6.222,0,0,1-3.282-.585A5.4,5.4,0,0,0-10,4.831c-.288.008-.878.009-1.316,0a1.262,1.262,0,0,1-1.165-.506.625.625,0,0,0-.609-.185c-.733.145-2.231.445-3.345.669-1.186.144-1.963-.569-1.736-1.6A1.319,1.319,0,0,1-17.43,2.3c1.507-.735,4.6-2.223,6.9-3.323a3.781,3.781,0,0,1,2.181.041c.832.289,2.53.887,3.793,1.335a2.214,2.214,0,0,0,.54.172c.246.239.615.126.824-.252A.689.689,0,0,1-2.71.02C-1.573,0-.436.009.145.009m-3.629,2c0-.345-.12-.658-.267-.7A12.434,12.434,0,0,1-4.992.944C-5.747.665-7.3.119-8.456-.276a2.835,2.835,0,0,0-2.4.187c-1.341.659-4.091,1.993-6.141,2.977a.662.662,0,0,0-.467.857c.044.288.438.452.88.365.755-.136,2.291-.443,3.432-.685a.549.549,0,0,0,.336-.294A1.345,1.345,0,0,1-11.476,2.11c.672-.01,2.045-.006,3.068.008.331.191.63-.026.669-.483.01-.121.236-.224.3-.279a.081.081,0,0,1,.119.017.443.443,0,0,1,.264.367A1.028,1.028,0,0,1-8.085,2.814c-.2,0-.614,0-.921,0-.529-.016-1.61-.014-2.414,0a.6.6,0,0,0-.691.594.7.7,0,0,0,.595.687,3.96,3.96,0,0,0,.874.024,8.877,8.877,0,0,1,4.3.8,5.447,5.447,0,0,0,2.374.252c.269.013.487-.268.487-.628Z" transform="translate(18.213 1.166)" fill="#fff"/>
      </g>
      <g id="Group_690" data-name="Group 690" transform="translate(8.164 23.513)">
        <path id="Path_884" data-name="Path 884" d="M0,.054c-.321,0-.58-.056-.58-.125V-.524c0-.07.213-.126.475-.126.36,0,1.406,0,2.337,0,.355.382.645.084.646-.666,0-.9,0-2.752,0-4.128.281-.336,0-.608-.63-.608H-.076c-.27,0-.491-.05-.493-.113L-.588-6.6c0-.062.022-.118.056-.122A.777.777,0,0,1-.3-6.754c.644-.006,1.961-.006,2.942,0,.337-.12.762.18.95.672a1.987,1.987,0,0,0,.286.233.655.655,0,0,0,.13,0,7.351,7.351,0,0,1,3.707.671,4.7,4.7,0,0,0,2.22.4c.336-.008,1.024-.01,1.536,0a1.261,1.261,0,0,1,1.167.5.62.62,0,0,0,.612.188c.725-.138,2.205-.432,3.305-.658a1.4,1.4,0,0,1,1.752.851,1.4,1.4,0,0,1-.883,1.73c-1.368.588-4.1,1.912-6.108,2.957a3.445,3.445,0,0,1-2.822.248L4.7-.3C4.562-.342,4.28-.424,4.07-.478c-.2-.168-.514-.06-.708.241a.813.813,0,0,1-.556.278C1.695.067.584.054,0,.054m3.64-2.012c0,.346.117.66.262.7A12.454,12.454,0,0,1,5.14-.889c.758.3,2.328.848,3.506,1.23a1.909,1.909,0,0,0,1.836.045c1.458-.7,4.44-2.143,6.658-3.215a.667.667,0,0,0,.476-.853c-.041-.292-.432-.459-.875-.371-.754.136-2.29.443-3.431.684a.549.549,0,0,0-.34.291,1.322,1.322,0,0,1-1.331,1.025c-.681.011-2.074.006-3.11-.01-.306-.158-.589.054-.632.477-.012.126-.231.231-.293.288a.082.082,0,0,1-.12-.015.446.446,0,0,1-.274-.362A1.032,1.032,0,0,1,8.232-2.755l.921,0c.528.013,1.609.012,2.413,0a.619.619,0,0,0,.7-.586.659.659,0,0,0-.629-.709,3.484,3.484,0,0,0-.7-.013,8.929,8.929,0,0,1-4.473-.806,5.392,5.392,0,0,0-2.342-.242c-.265-.016-.481.263-.481.623Z" transform="translate(0.588 6.78)" fill="#fff"/>
      </g>
      <g id="Group_691" data-name="Group 691" transform="translate(14.825 16.767)">
        <path id="Path_885" data-name="Path 885" d="M.054.014C.052.187.047.336.043.348A.232.232,0,0,0-.02.589.62.62,0,0,0,.227,1.1a.824.824,0,0,1,.475.77A.845.845,0,0,1,.314,3.089c-.363.012-.491.334-.288.719-.194.98-.8,1.585-1.354,1.352-.233-.2-.569-.059-.752.318-.7.549-1.536.552-1.874.006,0-.318-.341-.469-.756-.338-.89-.1-1.489-.7-1.337-1.346.255-.266.122-.592-.3-.728a.831.831,0,0,1-.331-.383,1.418,1.418,0,0,1,.475-1.6c.261-.057.338-.342.171-.635A.753.753,0,0,1-6.022,0,1.37,1.37,0,0,1-4.558-.869c.207.157.46.037.563-.265a.722.722,0,0,1,.72-.462.824.824,0,0,1,1.215.379c.029.305.371.446.765.312C-.8-1.071.058-.3.054.014M-5.278,3.673a1.124,1.124,0,0,0,.026.412c.1.211.272.352.392.314a1.475,1.475,0,0,1,1.488.618c.277.208.592.2.7-.014a1.41,1.41,0,0,1,1.413-.592c.377-.057.62-.262.543-.458A1.47,1.47,0,0,1-.148,2.5c.225-.3.235-.617.023-.718A1.56,1.56,0,0,1-.729.375C-.79,0-1-.239-1.19-.169A1.492,1.492,0,0,1-2.644-.752C-2.938-.97-3.254-.98-3.35-.775a1.619,1.619,0,0,1-1.435.627c-.3.146-.51.362-.48.484a1.511,1.511,0,0,1-.586,1.392c-.223.312-.255.633-.074.717a1.121,1.121,0,0,1,.646,1.229" transform="translate(6.765 1.74)" fill="#fff"/>
      </g>
      <g id="Group_692" data-name="Group 692" transform="translate(22.98 16.768)">
        <path id="Path_886" data-name="Path 886" d="M.04.033a1.154,1.154,0,0,1-1.128.993.473.473,0,0,0-.381.134,1.088,1.088,0,0,1-1.606.023.576.576,0,0,0-.413-.152A1.128,1.128,0,0,1-4.6-.07a.607.607,0,0,0-.178-.442A1.049,1.049,0,0,1-4.784-2.03c.155-.039.246-.278.2-.532A1.124,1.124,0,0,1-3.471-3.595a.541.541,0,0,0,.407-.166,1.054,1.054,0,0,1,1.541-.018c.019.163.242.25.5.193C-.345-3.5.122-3.009.018-2.5c-.082.126,0,.333.184.461A1.1,1.1,0,0,1,.275-.557C.134-.6.029-.332.04.033M-3.823-2.5a.593.593,0,0,1,0,.351,3.491,3.491,0,0,0-.4.63c-.08.192-.1.379-.04.417a1.468,1.468,0,0,1,.45,1.033c.069.181.189.321.269.31A1.37,1.37,0,0,1-2.5.674c.179.075.356.089.4.03A1.44,1.44,0,0,1-1.032.251c.166-.073.291-.193.278-.267a1.407,1.407,0,0,1,.43-1.039c.079-.182.1-.359.045-.394A1.429,1.429,0,0,1-.737-2.563c-.07-.151-.185-.263-.259-.25a1.407,1.407,0,0,1-1.046-.415.718.718,0,0,0-.453.006,1.838,1.838,0,0,1-.877.376c-.327.042-.513.084-.452.342" transform="translate(5.102 4.103)" fill="#fff"/>
      </g>
      <g id="Group_693" data-name="Group 693" transform="translate(17.073 19.113)">
        <path id="Path_887" data-name="Path 887" d="M.024.012A1.5,1.5,0,0,1-1.484,1.5,1.5,1.5,0,0,1-2.983,0,1.524,1.524,0,0,1-1.451-1.519,1.519,1.519,0,0,1,.024.012m-.716,0a.811.811,0,0,0-.782-.823A.849.849,0,0,0-2.281,0,.821.821,0,0,0-1.505.79.774.774,0,0,0-.692.011" transform="translate(2.983 1.519)" fill="#fff"/>
      </g>
      <g id="Group_694" data-name="Group 694" transform="translate(24.616 18.401)">
        <path id="Path_888" data-name="Path 888" d="M.009.019A1.166,1.166,0,0,1-1.145-1.2,1.166,1.166,0,0,1,.073-2.355,1.179,1.179,0,0,1,1.231-1.137,1.18,1.18,0,0,1,.009.019m.2-1.65c-.035-.05-.079-.092-.1-.093H-.014c-.018,0-.061.039-.1.089a.675.675,0,0,0-.308.454.425.425,0,0,0,.433.488.424.424,0,0,0,.495-.478c-.024-.2-.236-.368-.3-.459" transform="translate(1.145 2.355)" fill="#fff"/>
      </g>
    </g>
  </g>
</svg>
