<svg xmlns="http://www.w3.org/2000/svg" xmlns:xlink="http://www.w3.org/1999/xlink" width="40" height="41.85" viewBox="0 0 40 41.85">
  <defs>
    <clipPath id="clip-path">
      <path id="Path_942" data-name="Path 942" d="M0,11.132H40v-41.85H0Z" transform="translate(0 30.718)" fill="none"/>
    </clipPath>
  </defs>
  <g id="Group_754" data-name="Group 754" transform="translate(0 30.718)">
    <g id="Group_753" data-name="Group 753" transform="translate(0 -30.718)" clip-path="url(#clip-path)">
      <g id="Group_743" data-name="Group 743" transform="translate(0)">
        <path id="Path_932" data-name="Path 932" d="M10.64,5.566c0,11.557-8.955,20.925-20,20.925s-20-9.368-20-20.925,8.954-20.925,20-20.925,20,9.368,20,20.925" transform="translate(29.36 15.359)" fill="#fff"/>
      </g>
      <g id="Group_744" data-name="Group 744" transform="translate(12.552 9.068)">
        <path id="Path_933" data-name="Path 933" d="M1.987,5.016c-1.045,0-2.09.005-3.135,0-.677-.005-.914-.237-.933-.931a9.051,9.051,0,0,0-1.7-5.146,7.953,7.953,0,0,1-1.064-8,7.533,7.533,0,0,1,7.9-4.714,7.735,7.735,0,0,1,6.315,6.4A8.16,8.16,0,0,1,7.908-1.2a9.334,9.334,0,0,0-1.8,5.244c-.018.71-.3.963-.989.967-1.045.005-2.09,0-3.135,0m2.7-1.533A12.173,12.173,0,0,1,6.988-2.5a6.394,6.394,0,0,0-.477-7.684A5.881,5.881,0,0,0-.955-11.51,6.473,6.473,0,0,0-2.839-2.254,11.114,11.114,0,0,1-.919,1.835c.114.544.18,1.1.264,1.631H1.3c0-1.232.02-2.426-.012-3.62a2.237,2.237,0,0,0-.278-.989C.467-2.1-.122-3.031-.677-3.98c-.287-.495-.184-.985.238-1.17.458-.2.768.046,1,.436.467.77.929,1.544,1.436,2.386.516-.858.974-1.642,1.456-2.409.251-.4.593-.674,1.056-.353s.392.734.142,1.157c-.424.714-.82,1.448-1.289,2.128A3.549,3.549,0,0,0,2.721.539c.06.975.014,1.956.014,2.944Z" transform="translate(5.482 13.84)" fill="#2972bd"/>
      </g>
      <g id="Group_745" data-name="Group 745" transform="translate(15.973 29.204)">
        <path id="Path_934" data-name="Path 934" d="M.428,1.121A2.44,2.44,0,0,0,2.864,3.094,2.531,2.531,0,0,0,5.417,1.041c.136-.838.119-1.7.174-2.638H4.849c-1.708,0-3.416-.005-5.124,0-.488,0-.837-.166-.9-.706-.053-.451.327-.789.887-.792,2.11-.008,4.219,0,6.33,0,.443,0,.872.144.861.665a19.574,19.574,0,0,1-.252,4.05A3.855,3.855,0,0,1,2.294,4.451,4.246,4.246,0,0,1-1.177.51c-.026-.493.185-.851.67-.862,1.324-.027,2.65-.022,3.974,0a.643.643,0,0,1,.658.736.655.655,0,0,1-.683.718c-.722.034-1.446.018-2.169.022-.278,0-.556,0-.846,0" transform="translate(1.181 3.095)" fill="#2972bd"/>
      </g>
      <g id="Group_746" data-name="Group 746" transform="translate(19.282 5.064)">
        <path id="Path_935" data-name="Path 935" d="M.38.338c0,.147.007.294,0,.44-.027.467-.275.775-.71.777s-.683-.316-.706-.779a8.037,8.037,0,0,1,0-.941c.03-.452.243-.767.707-.768s.67.316.706.77c.012.166,0,.335,0,.5" transform="translate(1.05 0.934)" fill="#2972bd"/>
      </g>
      <g id="Group_747" data-name="Group 747" transform="translate(8.558 16.308)">
        <path id="Path_936" data-name="Path 936" d="M.321.4C.24.4.16.4.081.4c-.64-.015-.97-.279-.966-.77S-.565-1.1.093-1.1c.2,0,.4,0,.6,0a.676.676,0,0,1,.777.68C1.51.1,1.193.331.74.392a3.314,3.314,0,0,1-.42,0Z" transform="translate(0.885 1.1)" fill="#2972bd"/>
      </g>
      <g id="Group_748" data-name="Group 748" transform="translate(29.086 16.285)">
        <path id="Path_937" data-name="Path 937" d="M.319.007C.479.007.681-.057.791.02c.252.18.579.39.658.658a.626.626,0,0,1-.576.793A3.964,3.964,0,0,1-.2,1.485a.685.685,0,0,1-.672-.8A.677.677,0,0,1-.1.007H.319" transform="translate(0.88 0.018)" fill="#2972bd"/>
      </g>
      <g id="Group_749" data-name="Group 749" transform="translate(11.623 8.235)">
        <path id="Path_938" data-name="Path 938" d="M.513.365a.675.675,0,0,1-.74.643A1.68,1.68,0,0,1-1.414-.312.689.689,0,0,1-.7-1.007C-.248-1.015.519-.18.513.365" transform="translate(1.416 1.007)" fill="#2972bd"/>
      </g>
      <g id="Group_750" data-name="Group 750" transform="translate(26.466 8.271)">
        <path id="Path_939" data-name="Path 939" d="M.513.182C.509.741-.249,1.543-.714,1.52a.689.689,0,0,1-.7-.706C-1.446.377-.631-.521-.2-.5A.676.676,0,0,1,.513.182" transform="translate(1.416 0.503)" fill="#2972bd"/>
      </g>
      <g id="Group_751" data-name="Group 751" transform="translate(26.464 23.776)">
        <path id="Path_940" data-name="Path 940" d="M.382.532C-.3.537-1.09-.283-1.054-.752a.7.7,0,0,1,.7-.715C.111-1.493.941-.648.84-.182A2.145,2.145,0,0,1,.382.532" transform="translate(1.055 1.467)" fill="#2972bd"/>
      </g>
      <g id="Group_752" data-name="Group 752" transform="translate(11.666 23.842)">
        <path id="Path_941" data-name="Path 941" d="M.13.519a2.183,2.183,0,0,1-.48-.691C-.46-.568.371-1.435.8-1.432a.662.662,0,0,1,.728.721A1.522,1.522,0,0,1,.13.519" transform="translate(0.359 1.432)" fill="#2972bd"/>
      </g>
    </g>
  </g>
</svg>
