<svg id="technology" xmlns="http://www.w3.org/2000/svg" width="76" height="76" viewBox="0 0 76 76">
  <g id="Group_805" data-name="Group 805" transform="translate(0 8.352)">
    <g id="Group_804" data-name="Group 804">
      <path id="Path_997" data-name="Path 997" d="M13.585,56.263h-.018a5.081,5.081,0,0,0-4.985,5.061v7.232H1.119a1.119,1.119,0,0,0,0,2.237H8.583v5.881H1.119a1.119,1.119,0,0,0,0,2.237H8.583v5.881H1.119a1.119,1.119,0,0,0,0,2.237H8.583v5.881H1.119a1.119,1.119,0,0,0,0,2.237H8.583v5.881H1.119a1.119,1.119,0,0,0,0,2.237H8.583v3.825a1.119,1.119,0,1,0,2.237,0V61.324A2.836,2.836,0,0,1,13.6,58.5a1.118,1.118,0,0,0-.016-2.236Z" transform="translate(0 -56.263)" fill="#6dbbd4"/>
    </g>
  </g>
  <g id="Group_807" data-name="Group 807" transform="translate(8.875 62.498)">
    <g id="Group_806" data-name="Group 806">
      <path id="Path_998" data-name="Path 998" d="M111.8,423.488H64.558a2.817,2.817,0,0,1-2.616-1.756,1.118,1.118,0,1,0-2.07.847,5.044,5.044,0,0,0,4.686,3.146h7v7.7a1.119,1.119,0,0,0,2.237,0v-7.7h5.881v7.7a1.119,1.119,0,0,0,2.237,0v-7.7h5.881v7.7a1.119,1.119,0,0,0,2.237,0v-7.7h5.881v7.7a1.119,1.119,0,0,0,2.237,0v-7.7h5.881v7.7a1.119,1.119,0,0,0,2.237,0v-7.7H111.8a1.119,1.119,0,1,0,0-2.237Z" transform="translate(-59.788 -421.037)" fill="#6dbbd4"/>
    </g>
  </g>
  <g id="Group_809" data-name="Group 809" transform="translate(19.253 19.021)">
    <g id="Group_808" data-name="Group 808">
      <path id="Path_999" data-name="Path 999" d="M163.625,128.138H133.281a3.579,3.579,0,0,0-3.575,3.575v30.345a3.579,3.579,0,0,0,3.575,3.575h30.344a3.579,3.579,0,0,0,3.575-3.575V131.713A3.579,3.579,0,0,0,163.625,128.138Zm-31.681,3.575a1.339,1.339,0,0,1,1.338-1.338H156.42v11.683a5.314,5.314,0,0,0-4.057,4.057H144.12v-5.736a4.6,4.6,0,1,0-5.4-5.4h-6.779Zm25.6,12.463a3.057,3.057,0,1,1-3.058,3.058A3.061,3.061,0,0,1,157.539,144.176Zm-14.305-5.948a2.36,2.36,0,1,1,2.361-2.361A2.365,2.365,0,0,1,143.234,138.228ZM138.4,156.511a2.128,2.128,0,1,1,3.171-1.855A2.128,2.128,0,0,1,138.4,156.511Zm9.047,6.885h-7.505v-4.4a4.366,4.366,0,1,0-2.237-.331V163.4h-4.427a1.34,1.34,0,0,1-1.338-1.338v-24.84h6.9a4.684,4.684,0,0,0,3.044,3.044v6.971A1.119,1.119,0,0,0,143,148.353h4.449Zm17.512-1.338a1.34,1.34,0,0,1-1.338,1.338H149.688v-4.838h15.275Zm0-5.737H149.688v-7.969h2.676a5.294,5.294,0,1,0,6.294-6.294h0V130.375h4.967a1.339,1.339,0,0,1,1.338,1.338v24.608Z" transform="translate(-129.706 -128.138)" fill="#6dbbd4"/>
    </g>
  </g>
  <g id="Group_811" data-name="Group 811" transform="translate(16.941)">
    <g id="Group_810" data-name="Group 810">
      <path id="Path_1000" data-name="Path 1000" d="M172.071,31a1.119,1.119,0,0,0,0-2.237h-7.464V22.882h7.464a1.119,1.119,0,0,0,0-2.237h-7.464V13.412a5.068,5.068,0,0,0-5.062-5.062h-7V1.119a1.119,1.119,0,0,0-2.237,0V8.35h-5.881V1.119a1.119,1.119,0,0,0-2.237,0V8.35h-5.881V1.119a1.119,1.119,0,0,0-2.237,0V8.35H128.19V1.119a1.119,1.119,0,0,0-2.237,0V8.35h-5.881V1.119a1.119,1.119,0,0,0-2.237,0V8.35H115.25a1.119,1.119,0,1,0,0,2.237h44.3a2.828,2.828,0,0,1,2.825,2.825V62.124a2.8,2.8,0,0,1-.875,2.045,1.119,1.119,0,0,0,1.544,1.62,5.022,5.022,0,0,0,1.569-3.665V55.356h7.464a1.119,1.119,0,0,0,0-2.237h-7.464V47.237h7.464a1.119,1.119,0,0,0,0-2.237h-7.464V39.119h7.464a1.119,1.119,0,0,0,0-2.237h-7.464V31h7.464Z" transform="translate(-114.131)" fill="#6dbbd4"/>
    </g>
  </g>
</svg>
