<?xml version="1.0" encoding="utf-8"?>
<svg version="1.0" id="Layer_1" width="27" height="27"
	xmlns="http://www.w3.org/2000/svg"
	xmlns:xlink="http://www.w3.org/1999/xlink" x="0px" y="0px" viewBox="0 0 8.2 7.1" enable-background="new 0 0 8.2 7.1" xml:space="preserve">
	<path fill="none" stroke="#000" stroke-width="0.6" stroke-linecap="round" stroke-linejoin="round" stroke-miterlimit="10" d="
	M7.6,1.4c0,0-0.1-0.1-0.2,0c-0.1,0-0.2,0.1-0.2,0.1C7.3,1.3,7.4,1.2,7.5,1c0-0.1,0-0.1,0-0.2c0,0-0.1,0-0.2,0C7,1,6.7,1.1,6.5,1.1
	C6.2,0.9,5.8,0.7,5.4,0.7c-0.8,0-1.5,0.7-1.5,1.5c0,0.1,0,0.1,0,0.2C2.9,2.3,1.9,1.8,1.3,1C1.3,1,1.2,1,1.2,1c0,0-0.1,0-0.1,0.1
	C0.9,1.3,0.9,1.5,0.9,1.8c0,0.3,0.1,0.6,0.3,0.9c0,0-0.1,0-0.1,0c0,0-0.1,0-0.1,0c0,0-0.1,0.1-0.1,0.1c0,0.5,0.2,1,0.6,1.2
	c0,0-0.1,0-0.1,0.1c0,0,0,0.1,0,0.1c0.2,0.5,0.6,0.9,1.1,1C2,5.5,1.5,5.6,1.1,5.6c-0.1,0-0.2,0-0.3,0c-0.1,0-0.1,0-0.2,0.1
	c0,0.1,0,0.1,0.1,0.2c0.7,0.4,1.4,0.6,2.2,0.6C5.4,6.5,7,4.4,7,2.4c0,0,0-0.1,0-0.1c0.3-0.2,0.5-0.4,0.7-0.7
	C7.7,1.5,7.7,1.5,7.6,1.4z"/>
</svg>
