<svg xmlns="http://www.w3.org/2000/svg" width="78.332" height="76" viewBox="0 0 78.332 76">
  <g id="value_chain" data-name="value chain" transform="translate(0 -7.623)">
    <g id="Group_781" data-name="Group 781" transform="translate(0 7.623)">
      <path id="Path_977" data-name="Path 977" d="M400.818,226.349h-7.751a1.147,1.147,0,0,0,0,2.295h7.751a1.147,1.147,0,0,0,0-2.295Z" transform="translate(-331.958 -192.885)" fill="#6dbbd4"/>
      <path id="Path_978" data-name="Path 978" d="M401.965,254.7a1.147,1.147,0,0,0-1.147-1.147h-7.751a1.147,1.147,0,0,0,0,2.295h7.751A1.147,1.147,0,0,0,401.965,254.7Z" transform="translate(-331.958 -215.931)" fill="#6dbbd4"/>
      <path id="Path_979" data-name="Path 979" d="M393.066,280.766a1.147,1.147,0,0,0,0,2.295h2.384a1.147,1.147,0,0,0,0-2.295Z" transform="translate(-331.958 -238.977)" fill="#6dbbd4"/>
      <path id="Path_980" data-name="Path 980" d="M74.744,48.476V45.929a1.147,1.147,0,0,0-2.295,0v1.817a6.74,6.74,0,0,0-6.741,9.991H57.519V38.07h14.93v2.5a1.147,1.147,0,1,0,2.295,0V37.382a1.608,1.608,0,0,0-1.606-1.606h-5.3v-.362a10.207,10.207,0,0,0-10.2-10.2h-4.57V23.77a1.608,1.608,0,0,0-1.606-1.606H49.991V9.229a1.608,1.608,0,0,0-1.606-1.606h-3.5a1.608,1.608,0,0,0-1.606,1.606V22.163h-.77V9.229a1.608,1.608,0,0,0-1.606-1.606h-3.5A1.608,1.608,0,0,0,35.8,9.229v7.795L33.95,18.278v-.753a1.454,1.454,0,0,0-2.269-1.2L25.97,20.19a1.605,1.605,0,0,0-.705,1.33v3.7H19.97a10.207,10.207,0,0,0-10.2,10.2v2.155A6.957,6.957,0,0,0,5.341,48.589,8.156,8.156,0,0,0,0,56.233v1.339a1.914,1.914,0,0,0,1.912,1.912H9.775v2.059a10.207,10.207,0,0,0,10.2,10.2h8.054v4.207a1.147,1.147,0,0,0,.526.964l10.122,6.53a1.148,1.148,0,0,0,1.244,0l10.122-6.53a1.148,1.148,0,0,0,.526-.964V71.739h7.074a10.207,10.207,0,0,0,10.2-10.2V60.037a6.743,6.743,0,1,0,6.91-11.561ZM45.576,9.918H47.7v2.366h-2.12Zm0,4.661H47.7v7.585h-2.12ZM38.1,9.918h2.12v2.366H38.1Zm0,4.661h2.12v7.585H39.108V17.525a1.45,1.45,0,0,0-.773-1.284,1.466,1.466,0,0,0-.239-.1V14.579ZM33.95,21.05l2.863-1.939V36.146H33.95Zm-6.391.835,4.1-2.775V36.146h-4.1ZM10.922,39.767a4.667,4.667,0,1,1-4.667,4.667,4.672,4.672,0,0,1,4.667-4.667Zm27.225,40.6L30.32,75.321V67.109l7.827,5.049Zm1.147-10.2L31.289,65l8.006-5.164L47.3,65Zm8.975,5.152L40.442,80.37V72.159l7.827-5.049Zm9.369-5.877H50.564V65a1.146,1.146,0,0,0-.514-.954s-.007-.007-.012-.011L39.916,57.51a1.148,1.148,0,0,0-1.244,0L28.55,64.039c-.006,0-.009.008-.015.012a1.146,1.146,0,0,0-.511.952v4.44H19.97a7.91,7.91,0,0,1-7.9-7.9V59.484H12.7a1.147,1.147,0,1,0,0-2.295H2.295v-.956a5.857,5.857,0,0,1,5.1-5.8,6.939,6.939,0,0,0,7.05,0,5.857,5.857,0,0,1,5.1,5.8v.956h-1.5a1.147,1.147,0,0,0,0,2.295h1.879a1.914,1.914,0,0,0,1.912-1.912V56.233A8.156,8.156,0,0,0,16.5,48.589,6.957,6.957,0,0,0,12.07,37.568V35.413a7.91,7.91,0,0,1,7.9-7.9h5.294v9.322a1.608,1.608,0,0,0,1.606,1.606H51.462a1.608,1.608,0,0,0,1.606-1.606V34.3a1.147,1.147,0,0,0-2.295,0v1.845H48.921v-5.61a1.608,1.608,0,0,0-1.606-1.606H42.881a1.608,1.608,0,0,0-1.606,1.606v5.61H39.108V24.458H50.773v4.488a1.147,1.147,0,0,0,2.295,0V27.512h4.57a7.91,7.91,0,0,1,7.9,7.9v.362H56.83a1.608,1.608,0,0,0-1.606,1.606V58.426a1.608,1.608,0,0,0,1.606,1.606h8.708v1.511a7.91,7.91,0,0,1-7.9,7.9ZM43.57,36.146V31.224h3.056v4.922ZM71.587,58.886a4.451,4.451,0,1,1,4.451-4.451A4.456,4.456,0,0,1,71.587,58.886Z" transform="translate(0 -7.623)" fill="#6dbbd4"/>
      <path id="Path_981" data-name="Path 981" d="M449.269,297.919l-2.074,2.075-1.363-1.363a1.147,1.147,0,1,0-1.623,1.622l2.174,2.175a1.147,1.147,0,0,0,1.623,0l2.886-2.886a1.147,1.147,0,0,0-1.623-1.623Z" transform="translate(-375.963 -253.221)" fill="#6dbbd4"/>
    </g>
  </g>
</svg>
