<svg xmlns="http://www.w3.org/2000/svg" xmlns:xlink="http://www.w3.org/1999/xlink" width="28.036" height="26.26" viewBox="0 0 28.036 26.26">
  <defs>
    <clipPath id="clip-path">
      <path id="Path_945" data-name="Path 945" d="M0-9.938H28.036V-36.2H0Z" transform="translate(0 36.197)" fill="none"/>
    </clipPath>
  </defs>
  <g id="Group_758" data-name="Group 758" transform="translate(0 36.197)">
    <g id="Group_757" data-name="Group 757" transform="translate(0 -36.197)" clip-path="url(#clip-path)">
      <g id="Group_755" data-name="Group 755" transform="translate(0 0)">
        <path id="Path_943" data-name="Path 943" d="M-6.84-7.138A9.558,9.558,0,0,0,.037-9.572,9.271,9.271,0,0,0,3.113-16.1,9.4,9.4,0,0,0,.587-22.9a9.692,9.692,0,0,0-6.649-3.087,9.559,9.559,0,0,0-6.877,2.435,9.27,9.27,0,0,0-3.076,6.529,9.383,9.383,0,0,0,1.937,6.1l-1.685,1.517a2.309,2.309,0,0,0-2.477.386l-5.936,5.347a2.236,2.236,0,0,0-.132,3.193,2.319,2.319,0,0,0,3.24.156l5.936-5.346a2.226,2.226,0,0,0,.612-2.4l1.685-1.516A9.7,9.7,0,0,0-6.84-7.138m-4.7-14.909a7.491,7.491,0,0,1,5.395-1.909A7.6,7.6,0,0,1-.93-21.535,7.37,7.37,0,0,1,1.052-16.2a7.264,7.264,0,0,1-2.413,5.122A7.489,7.489,0,0,1-6.756-9.17a7.592,7.592,0,0,1-5.216-2.421,7.366,7.366,0,0,1-1.981-5.334,7.265,7.265,0,0,1,2.413-5.122" transform="translate(24.914 26)" fill="#2972bd"/>
      </g>
      <g id="Group_756" data-name="Group 756" transform="translate(13.113 3.043)">
        <path id="Path_944" data-name="Path 944" d="M-3.1-.224A5.963,5.963,0,0,0-5.4-.805a6.246,6.246,0,0,0-2.289.289,7.025,7.025,0,0,0-2.552,1.5,9.378,9.378,0,0,0-.847.874.9.9,0,0,0,.116,1.275.925.925,0,0,0,1.292-.1,7.4,7.4,0,0,1,.683-.7A5.2,5.2,0,0,1-7.1,1.2a4.451,4.451,0,0,1,2.263-.118,4.339,4.339,0,0,1,.68.2c.078.03.135.055.17.071l.034.016,0,0h0A.918.918,0,0,0-2.719,1,.9.9,0,0,0-3.1-.224" transform="translate(11.298 0.816)" fill="#2972bd"/>
      </g>
    </g>
  </g>
</svg>
