<svg width="24" height="24" id="Layer_1" data-name="Layer 1"
  xmlns="http://www.w3.org/2000/svg" viewBox="0 0 24 24">
  <defs>
    <style>.cls-1{fill:#21b1e7;}</style>
  </defs>
  <path class="cls-1" d="M20.65,15H2.41V4.76H20.65V15Zm.07-10.76H2.34a.42.42,0,0,0-.42.42V15.51H21.14V4.69a.42.42,0,0,0-.42-.42"/>
  <path class="cls-1" d="M1.92,17a.41.41,0,0,0,.42.41H20.72a.42.42,0,0,0,.42-.41V15.84H1.92V17Z"/>
  <path class="cls-1" d="M8.31,19.76a.17.17,0,0,0,.17.17h6.11a.17.17,0,0,0,0-.34H8.48a.17.17,0,0,0-.17.17"/>
  <path class="cls-1" d="M9.73,17.75a7.24,7.24,0,0,1-.13,1.52h3.86a7.24,7.24,0,0,1-.13-1.52Z"/>
  <path class="cls-1" d="M8.08,10.8H9.55A5.9,5.9,0,0,0,9.81,12H8.63A3.5,3.5,0,0,1,8.08,10.8ZM8,9.89a2.78,2.78,0,0,1,0-.58H9.52c0,.19,0,.39,0,.58a5.72,5.72,0,0,0,0,.59H8a3.81,3.81,0,0,1,0-.59m.67-2.08H9.81A6.06,6.06,0,0,0,9.56,9H8.08A3.59,3.59,0,0,1,8.63,7.81Zm1.93-1.35a2.94,2.94,0,0,0-.5.72c-.05.1-.09.2-.14.31h-1a3.55,3.55,0,0,1,1.67-1m.81-.12V7.49H10.28c0-.06.05-.11.07-.17A1.68,1.68,0,0,1,11.37,6.34Zm0,2.64H9.88a6.9,6.9,0,0,1,.27-1.17h1.22V9Zm0,1.5H9.85a5.72,5.72,0,0,1,0-.59c0-.19,0-.39,0-.58h1.52Zm0,1.49H10.15a6.69,6.69,0,0,1-.27-1.17h1.49V12Zm0,1.48a1.64,1.64,0,0,1-1-1c0-.05,0-.11-.08-.17h1.09v1.16ZM8.89,12.3h1a2.75,2.75,0,0,0,.14.3,2.73,2.73,0,0,0,.49.73,3.63,3.63,0,0,1-1.67-1m2.8-4.49h1.22A6.69,6.69,0,0,1,13.18,9H11.69V7.81Zm0-1.47a1.64,1.64,0,0,1,1,1,.8.8,0,0,1,.08.16H11.69V6.34Zm2.48,1.15h-1c-.05-.11-.09-.21-.14-.31a2.94,2.94,0,0,0-.5-.72,3.5,3.5,0,0,1,1.67,1m.26.32A3.59,3.59,0,0,1,15,9H13.51a6.91,6.91,0,0,0-.25-1.17Zm-2.9,6a3.83,3.83,0,0,0,1.18-.18.56.56,0,0,1-.17-.26v0l-.11-.38a1.23,1.23,0,0,1-.73.53V12.3h.57L12.17,12h-.48V10.81h.17l0-.05a.38.38,0,0,1,0-.15.51.51,0,0,1,0-.13h-.16V9.31h1.52a5.62,5.62,0,0,1,0,.58c0,.16,0,.33,0,.48l.32.09c0-.19,0-.38,0-.57s0-.39,0-.58h1.51a2.89,2.89,0,0,1,0,.29c0,.1,0,.2,0,.3a3.68,3.68,0,0,1,0,.58H13.61l1.22.33.14,0h0a.49.49,0,0,1,.24.15,3.73,3.73,0,0,0,.16-1.11A3.91,3.91,0,0,0,11.53,6a3.9,3.9,0,1,0,0,7.8Z"/>
  <path class="cls-1" d="M13.54,10.48h.08l-.08,0v0"/>
  <path class="cls-1" d="M14.45,11.76l.18-.1.31-.17,0,0a.18.18,0,0,0,.09-.16s0-.05,0-.07a.16.16,0,0,0-.09-.07l-.08,0-.74-.2-.46-.12-.09,0-.23-.06-.44-.12-.55-.14h-.09a.13.13,0,0,0-.07,0,.22.22,0,0,0,0,.11.11.11,0,0,0,0,0l0,.13,0,.14.28,1,0,.15.05.18,0,.14,0,.11.08.27,0,.16.06.23v0a.17.17,0,0,0,.11.12h0a.15.15,0,0,0,.16-.08h0l.17-.31.12-.22,1,1a.13.13,0,0,0,.11.05.15.15,0,0,0,.12-.05l.77-.77a.17.17,0,0,0,0-.23Z"/>
</svg>