<?xml version="1.0" encoding="utf-8"?>
<svg version="1.0" id="Layer_1" width="27" height="27"
	xmlns="http://www.w3.org/2000/svg"
	xmlns:xlink="http://www.w3.org/1999/xlink" x="0px" y="0px" viewBox="0 0 60 60" enable-background="new 0 0 60 60" xml:space="preserve">
	<g>
		<g>
			<path d="M53.423,47.75H6.45c-3.178,0-5.764-2.586-5.764-5.764V13.014c0-3.178,2.586-5.764,5.764-5.764h46.973
			c3.178,0,5.764,2.585,5.764,5.764v28.973C59.187,45.164,56.601,47.75,53.423,47.75z M6.45,11.75c-0.697,0-1.264,0.567-1.264,1.264
			v28.973c0,0.697,0.566,1.264,1.264,1.264h46.973c0.697,0,1.264-0.566,1.264-1.264V13.014c0-0.697-0.566-1.264-1.264-1.264H6.45z" />
		</g>
		<g>
			<path d="M24.008,37.75c-0.389,0-0.777-0.101-1.125-0.302c-0.696-0.401-1.125-1.145-1.125-1.948v-16
			c0-0.804,0.429-1.546,1.125-1.949c0.695-0.401,1.555-0.401,2.25,0l13.856,8c0.696,0.402,1.125,1.145,1.125,1.949
			s-0.429,1.547-1.125,1.949l-13.856,8C24.785,37.649,24.396,37.75,24.008,37.75z M26.258,23.397v8.206l7.106-4.103L26.258,23.397z" />
		</g>
		<g>
			<path d="M43.937,53.75h-28c-1.242,0-2.25-1.008-2.25-2.25s1.008-2.25,2.25-2.25h28c1.242,0,2.25,1.008,2.25,2.25
			S45.179,53.75,43.937,53.75z"/>
		</g>
	</g>
</svg>
